<svg width="70" height="70" viewBox="0 0 70 70" fill="none" xmlns="http://www.w3.org/2000/svg">
<g filter="url(#filter0_d_48_32)">
<path d="M4 4H66.2356L72.7867 16.5563V72.7867H4V4Z" fill="white"/>
</g>
<path d="M58.3367 42.5937C57.0537 40.3401 56.4363 39.3662 54.2172 37.967C52.4016 36.8222 49.5104 35.4693 47.9 35.9064C47.4559 36.0044 47.0611 36.1514 46.7157 36.3473C46.3703 36.5433 46.0989 36.7638 45.9015 37.0087C45.7041 37.2537 45.6794 37.4496 45.8275 37.5966C53.2787 39.5563 57.0044 44.088 57.0044 51.1917C57.0044 52.8574 56.6836 54.4006 56.0421 55.8214C55.45 57.2421 54.5371 58.4914 53.3034 59.5692C52.1191 60.598 50.6387 61.4309 48.8623 62.0677C47.1351 62.6556 45.1613 62.9496 42.9407 62.9496C39.2397 62.9496 35.7115 62.3372 32.3559 61.1124C29.0004 59.8876 25.7685 58.4636 23.2519 56.6019C24.8309 56.5529 26.6811 56.0908 28.2109 55.4539C29.7406 54.817 31.221 53.6657 32.652 52C34.0831 50.3343 35.4648 48.0562 36.7971 45.1658C38.1788 42.2263 39.5111 38.4295 40.7942 33.7753C41.6824 30.3459 42.768 27.4064 44.051 24.9569C45.334 22.5073 46.7897 20.4497 48.4181 18.784C50.1096 17.2495 53.0152 16.4565 53.5121 16.3252C55.0251 15.9254 55.3268 15.9143 55.7303 15.7145C56.2346 15.6146 56.6381 14.1154 56.1337 13.9155C56.1337 13.9155 55.7303 13.7156 55.1251 13.9155C52.6578 14.5034 51.0088 15.5751 49.2324 16.7998C48.6695 17.1879 47.3582 18.1264 46.7897 18.637C44.7172 20.4987 42.9407 22.8013 41.4603 25.5448C40.0293 28.2883 38.7956 31.4727 37.7594 35.0981C36.7231 38.8214 35.7362 41.9079 34.7986 44.3574C33.9104 46.807 33.7411 47.5615 31.522 50.16C29.4361 52.6026 27.4873 53.4803 24.0578 53.8578C20.6283 54.2354 20.6283 54.1312 17.108 53.5433C16.7373 53.4814 16.6945 53.4925 16.2197 54.1312C16.0717 54.392 15.9237 54.5231 16.0717 54.7191C19.5259 57.6095 23.3009 59.8876 27.3967 61.5533C31.5417 63.219 36.1556 64.0519 41.2383 64.0519C47.5546 64.0519 52.2918 62.7536 55.45 60.1571C58.6575 57.5606 60.2612 54.0332 60.2612 49.575C60.2612 47.1744 59.6197 44.8473 58.3367 42.5937Z" fill="black"/>
<path d="M58.3368 42.5937C57.0538 40.3401 56.4364 39.3662 54.2173 37.967C52.4017 36.8222 49.5105 35.4693 47.9001 35.9064C47.456 36.0044 47.0612 36.1513 46.7158 36.3473C46.3704 36.5433 46.099 36.7637 45.9016 37.0087C45.7042 37.2536 45.6795 37.4496 45.8276 37.5966C53.2788 39.5562 57.0045 44.0879 57.0045 51.1916C57.0045 52.8573 56.6837 54.4006 56.0422 55.8213C55.4501 57.2421 54.5372 58.4913 53.3035 59.5691C52.1192 60.598 50.6388 61.4308 48.8623 62.0677C47.1352 62.6556 45.1614 62.9495 42.9408 62.9495C39.2398 62.9495 35.7116 62.3372 32.356 61.1124C29.0005 59.8876 26.3788 58.2009 23.4536 56.7018L17.1081 53.5432C16.7374 53.4813 16.6946 53.4925 16.2198 54.1311C16.0718 54.3919 15.9237 54.5231 16.0718 54.719C19.526 57.6095 23.301 59.8876 27.3967 61.5533C31.5418 63.219 36.1557 64.0518 41.2384 64.0518C47.5547 64.0518 52.2919 62.7536 55.4501 60.157C58.6576 57.5605 60.2613 54.0331 60.2613 49.5749C60.2613 47.1744 59.6198 44.8473 58.3368 42.5937Z" fill="black"/>
<path fill-rule="evenodd" clip-rule="evenodd" d="M18.5101 54.1577L19.5019 54.6909L26.9309 59.1671C29.0762 60.2252 31.3844 60.8467 33.32 61.1538C34.2881 61.3074 35.1617 61.3821 35.8736 61.3937C36.5884 61.4053 37.1315 61.3531 37.4435 61.2579C38.0891 61.0611 39.3088 60.5137 40.5499 59.8148C41.7919 59.1154 42.8941 58.2222 43.727 57.5557L44.0799 57.2559C44.0554 57.2767 46.0358 55.1986 46.1478 55.0916C46.2598 54.9845 46.5265 55.6912 46.1478 56.4908C45.6435 57.5557 44.8 59.0893 45.24 60.1886C46.4504 61.8877 45.5791 63.4876 45.8452 62.8871C45.3412 63.5074 43.3653 63.816 41.8129 63.852C40.2741 63.8877 39.2575 63.8931 38.5982 63.881C38.2686 63.875 38.0273 63.8645 37.8541 63.8512C37.6838 63.8381 37.5715 63.8217 37.5056 63.8009C37.4884 63.7954 37.4708 63.7886 37.4548 63.7796C37.4401 63.7713 37.4182 63.7564 37.4028 63.731C37.3843 63.7004 37.381 63.6638 37.3939 63.6304C37.4047 63.6027 37.4236 63.585 37.4355 63.5754C37.4508 63.5632 37.4687 63.5533 37.4859 63.5455L27.2447 60.6463L17.6506 54.8426L17.7557 54.672L27.3265 60.4615L37.9044 63.4561L37.8922 63.6509L37.8909 63.6511L37.8866 63.6518C37.885 63.6521 37.8831 63.6524 37.8808 63.6528C38.0477 63.6653 38.2815 63.6753 38.6019 63.6811C39.2571 63.6932 40.2704 63.6878 41.8081 63.6522C43.3322 63.6168 44.1919 63.2159 44.6429 62.661C45.0944 62.1055 45.1573 61.3699 45.0271 60.6172C44.8972 59.8657 44.5775 59.1148 44.2879 58.549C44.1435 58.2667 44.0072 58.0318 43.9072 57.8677C43.8708 57.808 43.8392 57.7577 43.8138 57.7179C43.0682 58.498 41.8465 59.3145 40.6496 59.9885C39.4029 60.6906 38.1686 61.246 37.5029 61.449C37.1593 61.5537 36.59 61.6053 35.8703 61.5935C35.1476 61.5818 34.2644 61.5061 33.2881 61.3512C31.3358 61.0415 29.0056 60.4143 26.8371 59.3441L26.8333 59.3423L19.3339 54.8236L18.5101 54.1577Z" fill="black"/>
<path fill-rule="evenodd" clip-rule="evenodd" d="M39.5561 61.0009C39.5849 61.0024 39.6024 61.0034 39.618 61.0034C39.7117 61.0034 39.813 61.0107 39.8993 61.0169C39.9382 61.0197 39.974 61.0223 40.0046 61.0239C40.1286 61.0304 40.2387 61.0641 40.3203 61.0913C40.3452 61.0997 40.3671 61.1072 40.3869 61.114C40.441 61.1326 40.4794 61.1457 40.5221 61.1554C40.5866 61.1699 40.6493 61.1788 40.7143 61.1843C40.7171 61.1829 40.7199 61.1816 40.7228 61.1802C40.8165 61.1374 40.9209 61.146 41.0036 61.1943C41.0129 61.1944 41.0224 61.1945 41.0319 61.1945C41.0576 61.1948 41.084 61.195 41.1115 61.1953C41.116 61.1954 41.1213 61.1954 41.1269 61.1955C41.1412 61.1956 41.1575 61.1957 41.1691 61.1961C41.1773 61.1963 41.1934 61.1969 41.2112 61.199C41.2201 61.2001 41.2363 61.2023 41.2555 61.2072C41.2696 61.2108 41.3133 61.2225 41.3592 61.2552C41.3637 61.2584 41.3684 61.262 41.3732 61.2659C41.3833 61.2661 41.3936 61.2664 41.404 61.2666C41.5201 61.2698 41.6478 61.2761 41.7806 61.2975C41.8334 61.306 41.8926 61.3159 41.9443 61.3303C41.9954 61.3445 42.0757 61.3725 42.1451 61.4397C42.2209 61.5133 42.2493 61.5996 42.261 61.6646C42.2712 61.7217 42.2715 61.782 42.2715 61.8257C42.2715 61.9268 42.2355 62.0117 42.2112 62.0609C42.1853 62.1132 42.1544 62.1599 42.1368 62.1866L42.1361 62.1877C42.0579 62.3062 41.9375 62.347 41.8736 62.3628C41.802 62.3805 41.7296 62.384 41.6743 62.3841C41.6166 62.3842 41.5607 62.3804 41.518 62.3771C41.4999 62.3757 41.4858 62.3745 41.4745 62.3736C41.4539 62.3719 41.4429 62.371 41.4347 62.3708C41.2681 62.3664 41.0649 62.3193 40.9114 62.1891C40.8304 62.1205 40.7613 62.0261 40.7291 61.9057C40.7185 61.8658 40.7126 61.8256 40.711 61.7854C40.6068 61.7783 40.4986 61.7651 40.388 61.7402C40.3092 61.7225 40.2278 61.6944 40.1674 61.6735C40.1526 61.6684 40.1391 61.6637 40.1271 61.6598C40.0549 61.6357 40.01 61.6248 39.9728 61.6229C39.9146 61.6198 39.8664 61.6162 39.8223 61.6129C39.7515 61.6076 39.6914 61.6031 39.618 61.6031C39.5843 61.6031 39.5476 61.6011 39.5202 61.5996C39.5158 61.5994 39.5117 61.5991 39.5078 61.5989C39.4751 61.5972 39.4512 61.5963 39.4307 61.5969C39.4229 61.5971 39.4168 61.5975 39.412 61.598C39.3527 61.6408 39.2918 61.6618 39.2446 61.673C39.1938 61.6851 39.1453 61.6888 39.1177 61.6908C39.1098 61.6913 39.1032 61.6918 39.0975 61.6922C39.0839 61.6932 39.0758 61.6937 39.0693 61.6944C38.9944 61.7311 38.9221 61.7455 38.8846 61.753C38.883 61.7533 38.8816 61.7535 38.8802 61.7538C38.8419 61.7615 38.8316 61.7643 38.8306 61.7644C38.6815 61.8369 38.501 61.7768 38.4266 61.6293C38.3519 61.4812 38.4125 61.301 38.562 61.227C38.6371 61.1898 38.7154 61.1746 38.7519 61.1676C38.7551 61.1669 38.758 61.1664 38.7606 61.1659C38.7882 61.1604 38.7985 61.1574 38.8008 61.1568C38.8654 61.1219 38.9283 61.1087 38.9706 61.1024C39.0054 61.0972 39.0428 61.0947 39.0642 61.0932C39.0678 61.093 39.071 61.0928 39.0736 61.0926C39.0778 61.0923 39.0815 61.092 39.0847 61.0917C39.2041 61.0114 39.3355 60.9995 39.4136 60.9974C39.461 60.996 39.5064 60.9982 39.5403 61C39.5459 61.0003 39.5512 61.0006 39.5561 61.0009ZM39.0586 61.6959C39.0586 61.6958 39.059 61.6958 39.0598 61.6956C39.059 61.6958 39.0586 61.6959 39.0586 61.6959Z" fill="black"/>
<path fill-rule="evenodd" clip-rule="evenodd" d="M38.9242 61.7178C39.0696 61.6421 39.1278 61.4647 39.0539 61.3184C38.9792 61.1703 38.7974 61.1103 38.648 61.1843C38.6101 61.203 38.5716 61.2159 38.5113 61.2361C38.4964 61.241 38.4802 61.2465 38.4624 61.2525C38.3832 61.2794 38.2749 61.3184 38.1713 61.3886C38.1546 61.4 38.1325 61.4152 38.1101 61.4332C37.9569 61.4459 37.8146 61.4914 37.7112 61.5269C37.6734 61.5398 37.64 61.5572 37.6204 61.5677C37.6048 61.5761 37.587 61.5862 37.5738 61.5937C37.5698 61.596 37.5662 61.598 37.5632 61.5997C37.5588 61.6022 37.5551 61.6043 37.5518 61.6061C37.3003 61.6332 37.056 61.6681 36.8086 61.7101C36.7332 61.7229 36.6592 61.7283 36.5776 61.7283H35.6846C35.6395 61.7283 35.6109 61.7249 35.5673 61.7153C35.5673 61.7153 35.5673 61.7153 35.5673 61.7153C35.5672 61.7153 35.5659 61.715 35.5631 61.7141C35.56 61.7132 35.5557 61.7117 35.5496 61.7095C35.5395 61.7058 35.5339 61.7036 35.5266 61.7007C35.5199 61.698 35.5116 61.6947 35.4969 61.6891C35.4562 61.6737 35.3741 61.643 35.2757 61.643C35.2042 61.643 35.1317 61.6385 35.0479 61.633L35.0437 61.6328C34.9641 61.6276 34.8735 61.6217 34.7808 61.6217C34.7585 61.6217 34.7306 61.6164 34.6605 61.5989C34.6576 61.5981 34.6545 61.5973 34.6513 61.5965C34.5928 61.5818 34.4971 61.5578 34.3934 61.5578H34.0061C33.9652 61.5578 33.9203 61.5614 33.8873 61.5641C33.8828 61.5645 33.8784 61.5649 33.874 61.5652C33.842 61.5679 33.8144 61.5702 33.7872 61.5715C33.7638 61.5726 33.7466 61.5726 33.7345 61.572C33.7282 61.5679 33.7205 61.5626 33.711 61.556C33.7073 61.5534 33.7032 61.5505 33.6987 61.5474C33.6789 61.5335 33.6525 61.5149 33.6265 61.4982C33.5672 61.4601 33.4546 61.3928 33.3124 61.3874C33.2206 61.3839 33.1213 61.3851 33.0324 61.3862C32.9925 61.3867 32.9547 61.3872 32.9206 61.3872C32.8649 61.3872 32.7952 61.3943 32.7416 61.3998C32.731 61.4008 32.7211 61.4019 32.712 61.4027C32.6551 61.4083 32.6077 61.4118 32.5681 61.4115C32.5252 61.2977 32.4145 61.2166 32.2846 61.2166C32.1175 61.2166 31.982 61.3509 31.982 61.5164C31.982 61.6799 32.053 61.8249 32.1898 61.915C32.3034 61.9899 32.4318 62.0059 32.5174 62.0099C32.6091 62.0143 32.702 62.0062 32.7711 61.9995C32.7886 61.9978 32.8041 61.9963 32.818 61.9949C32.8694 61.9898 32.8988 61.9868 32.9206 61.9868C32.9715 61.9868 33.0177 61.9862 33.0615 61.9857C33.1346 61.9847 33.2011 61.9838 33.2714 61.986C33.2768 61.9888 33.285 61.9935 33.2967 62.0011C33.3116 62.0106 33.3254 62.0203 33.3438 62.0332C33.3496 62.0373 33.3559 62.0417 33.3628 62.0465C33.3876 62.0637 33.4228 62.088 33.461 62.109C33.5356 62.15 33.6121 62.1628 33.6633 62.1679C33.7181 62.1734 33.7722 62.1725 33.8162 62.1704C33.855 62.1686 33.8941 62.1653 33.9251 62.1628C33.9294 62.1624 33.9335 62.1621 33.9375 62.1617C33.9748 62.1587 33.9946 62.1574 34.0061 62.1574H34.3934C34.4148 62.1574 34.4418 62.1626 34.5125 62.1803C34.5153 62.181 34.5181 62.1817 34.5211 62.1824C34.58 62.1972 34.6761 62.2214 34.7808 62.2214C34.8521 62.2214 34.9245 62.226 35.0084 62.2314L35.0123 62.2317C35.0882 62.2366 35.174 62.2421 35.2623 62.2427C35.266 62.2439 35.2717 62.2458 35.28 62.249C35.2859 62.2512 35.2917 62.2535 35.299 62.2563C35.301 62.2571 35.303 62.2579 35.3053 62.2588C35.3149 62.2626 35.3268 62.2672 35.3394 62.2718C35.3643 62.281 35.3977 62.2923 35.436 62.3007C35.5198 62.3191 35.5924 62.328 35.6846 62.328H36.5776C36.6875 62.328 36.7963 62.3206 36.9109 62.3012C37.1596 62.2589 37.4029 62.2245 37.6529 62.1984C37.7164 62.1918 37.7682 62.1687 37.7903 62.1586C37.8181 62.1457 37.8445 62.131 37.8625 62.1209C37.8699 62.1167 37.8762 62.1132 37.8816 62.1101C37.8923 62.104 37.9 62.0996 37.9086 62.095C37.9118 62.0933 37.9141 62.0921 37.9157 62.0913C38.0305 62.0522 38.119 62.0295 38.1903 62.0295C38.255 62.0295 38.3145 62.0223 38.3558 62.0172L38.361 62.0166C38.4073 62.011 38.4338 62.0082 38.4593 62.0082C38.512 62.0082 38.5679 61.9942 38.5876 61.9892L38.5884 61.989C38.6204 61.981 38.6581 61.97 38.6923 61.9574C38.7087 61.9514 38.7315 61.9423 38.7547 61.9303C38.7661 61.9244 38.7843 61.9144 38.804 61.8998C38.8174 61.8899 38.8634 61.8556 38.8963 61.7935C38.9066 61.7739 38.9173 61.7483 38.9242 61.7178ZM38.5896 61.9442C38.5945 61.9442 38.5937 61.9445 38.5888 61.9442H38.5896Z" fill="black"/>
<path fill-rule="evenodd" clip-rule="evenodd" d="M37.0966 62.6741C36.8158 62.7021 36.5491 62.6709 36.3105 62.643C36.2589 62.637 36.2086 62.6311 36.1598 62.626C36.0576 62.6154 35.9543 62.6071 35.8466 62.5984L35.8459 62.5984C35.7392 62.5898 35.628 62.5809 35.5164 62.5692C35.4536 62.5626 35.3928 62.5507 35.3476 62.5419C35.3431 62.5411 35.3388 62.5402 35.3347 62.5394C35.2824 62.5293 35.2516 62.5242 35.2265 62.5227C35.2144 62.522 35.2076 62.5224 35.2044 62.5228C35.2028 62.5241 35.2002 62.5264 35.1966 62.5303C35.0831 62.6518 34.8917 62.6592 34.769 62.5468C34.6463 62.4343 34.6388 62.2446 34.7523 62.1231C34.9121 61.952 35.1 61.9145 35.2624 61.9241C35.3333 61.9283 35.4014 61.9414 35.4505 61.9509C35.4534 61.9514 35.4562 61.952 35.4589 61.9525C35.5096 61.9623 35.545 61.9692 35.5802 61.9728C35.6832 61.9836 35.787 61.992 35.8948 62.0007L35.8989 62.001C36.0043 62.0095 36.1137 62.0183 36.2232 62.0297C36.2848 62.0361 36.3434 62.0427 36.3996 62.0491C36.6988 62.083 36.9294 62.109 37.182 62.0549C37.3768 62.0132 37.5706 61.9536 37.7791 61.8889L37.795 61.884C37.9947 61.822 38.2085 61.7557 38.4281 61.7071C38.508 61.6894 38.593 61.6748 38.6694 61.6617C38.6926 61.6577 38.7151 61.6538 38.7364 61.6501C38.7765 61.643 38.8142 61.6359 38.8499 61.6285C38.758 61.577 38.6959 61.4793 38.6959 61.3672C38.6959 61.2016 38.8314 61.0674 38.9985 61.0674H40.7196C40.7386 61.0627 40.7567 61.0586 40.7735 61.0548C40.788 61.0516 40.8015 61.0486 40.8142 61.0458C40.8679 61.034 40.9065 61.0254 40.9454 61.0131C40.9689 61.0056 41.0078 60.9946 41.0527 60.9918C41.0743 60.9904 41.1157 60.9895 41.1643 61.003C41.1957 61.0118 41.2419 61.0303 41.2852 61.0674H41.7768C41.7981 61.0674 41.8251 61.0656 41.8691 61.0628L41.8819 61.062C41.9281 61.0591 41.9872 61.0555 42.0481 61.0561C42.1512 61.057 42.3463 61.0676 42.4962 61.1963C42.5604 61.2514 42.5992 61.319 42.6214 61.3634C42.6459 61.4123 42.6649 61.4634 42.6794 61.5068C42.6942 61.5509 42.7069 61.5946 42.7168 61.6294L42.7192 61.6379C42.7288 61.6715 42.7346 61.6917 42.7394 61.7059C42.7859 61.8443 42.8051 62.0395 42.6615 62.1976C42.5437 62.3272 42.3749 62.358 42.2736 62.3698C42.2489 62.3727 42.2235 62.3766 42.1975 62.3814C42.2011 62.3869 42.2046 62.3925 42.208 62.3983C42.2355 62.445 42.2809 62.5226 42.2996 62.6181C42.3208 62.7267 42.3031 62.8264 42.2678 62.9187C42.2143 63.0583 42.1026 63.1401 42.0228 63.1853C41.938 63.2334 41.8438 63.2657 41.7621 63.2884C41.628 63.3256 41.4819 63.3484 41.3973 63.3616C41.3802 63.3643 41.3657 63.3666 41.3542 63.3685C41.3542 63.3685 41.3526 63.3688 41.3489 63.3696C41.3447 63.3705 41.3391 63.3717 41.3319 63.3734C41.3227 63.3756 41.3152 63.3774 41.3067 63.3794C41.2987 63.3814 41.2896 63.3835 41.2773 63.3864C41.2352 63.3964 41.1789 63.4091 41.1203 63.4181C41.0648 63.4266 40.9895 63.4346 40.9131 63.4266C40.8459 63.4196 40.7063 63.3929 40.6131 63.2647C40.5946 63.2392 40.576 63.2086 40.5609 63.1736C40.5557 63.1743 40.5504 63.175 40.5451 63.1756C40.3953 63.1948 40.2349 63.2145 40.07 63.2231C39.9193 63.2309 39.7675 63.262 39.6026 63.3051C39.5285 63.3245 39.4545 63.3456 39.3768 63.3678C39.3678 63.3704 39.3587 63.3729 39.3496 63.3755C39.2632 63.4001 39.1723 63.4258 39.0797 63.4489C38.891 63.4961 38.6743 63.5489 38.4304 63.542C38.4238 63.5418 38.4196 63.5419 38.4129 63.5419C38.4047 63.542 38.3928 63.5421 38.3685 63.5419C38.3365 63.5415 38.2934 63.5404 38.2481 63.5356C38.2057 63.5311 38.145 63.5218 38.0843 63.4983C38.0288 63.4768 37.9218 63.4233 37.866 63.2989C37.8413 63.2439 37.8122 63.154 37.835 63.0499C37.8381 63.0356 37.842 63.0219 37.8465 63.0089C37.7286 63.0131 37.6103 63.0132 37.4917 63.0089C37.4479 63.0073 37.3709 63.0039 37.3039 62.979C37.2836 62.9715 37.2466 62.9558 37.2088 62.9247C37.1688 62.8918 37.1143 62.8294 37.0997 62.7339C37.0966 62.7129 37.0957 62.693 37.0966 62.6741ZM38.2592 63.359C38.2594 63.359 38.2597 63.3589 38.2599 63.3589C38.257 63.3595 38.2565 63.3595 38.2592 63.359ZM41.7049 61.8922C41.7043 61.892 41.7038 61.8918 41.7032 61.8917C41.6218 61.8692 41.5471 61.8784 41.4978 61.8886C41.4206 61.9044 41.3576 61.9322 41.3057 61.9661C41.3044 61.9524 41.3022 61.9382 41.2989 61.9237C41.2817 61.8481 41.24 61.7901 41.1942 61.7504C41.1587 61.7196 41.1212 61.6995 41.0864 61.6863C41.097 61.68 41.1075 61.6736 41.1181 61.667H41.7768C41.8193 61.667 41.8676 61.6639 41.9062 61.6614C41.9112 61.661 41.9161 61.6607 41.9208 61.6604C41.9667 61.6575 42.0062 61.6554 42.0426 61.6557C42.0628 61.6559 42.0789 61.6568 42.0915 61.6581C42.0957 61.6686 42.1002 61.6811 42.105 61.6957C42.1143 61.7233 42.123 61.7528 42.132 61.7841C41.9831 61.8081 41.8336 61.8516 41.7049 61.8922Z" fill="black"/>
<path fill-rule="evenodd" clip-rule="evenodd" d="M44.0221 58.391C44.0986 58.3022 44.1186 58.1732 44.0626 58.0622C43.9879 57.9141 43.8061 57.854 43.6566 57.9281C43.55 57.9809 43.5048 58.0701 43.4902 58.1003C43.4853 58.1104 43.4803 58.1221 43.4774 58.1289C43.4773 58.129 43.4772 58.1292 43.477 58.1293C43.4738 58.134 43.4693 58.1399 43.4637 58.1469C43.4549 58.1578 43.4452 58.1693 43.4358 58.1798C43.4338 58.1815 43.4311 58.1837 43.4285 58.1859C43.4133 58.1988 43.3836 58.2249 43.3556 58.2656C43.3474 58.2734 43.3405 58.2807 43.3349 58.2869C43.3332 58.2887 43.3316 58.2905 43.3301 58.2922C43.3109 58.3046 43.2955 58.3173 43.2836 58.3281C43.2815 58.33 43.2795 58.3319 43.2775 58.3337C43.2602 58.3428 43.247 58.3506 43.2413 58.354C43.24 58.3548 43.2391 58.3553 43.2386 58.3556C43.1849 58.386 43.1469 58.4186 43.1208 58.4415C43.0872 58.4711 43.0646 58.4994 43.0499 58.5191C43.0454 58.525 43.0362 58.5377 43.0361 58.5378C43.0361 58.5379 43.036 58.538 43.036 58.538C43.0336 58.5401 43.0298 58.5431 43.0241 58.5475C43.0183 58.5519 43.0141 58.555 43.0087 58.559C43.0047 58.562 42.9999 58.5656 42.9934 58.5705C42.9814 58.5795 42.9652 58.5918 42.9487 58.6059C42.9386 58.6145 42.9297 58.6229 42.9218 58.631C42.9204 58.6325 42.919 58.634 42.9176 58.6354C42.9162 58.6362 42.9149 58.637 42.9136 58.6377C42.91 58.6398 42.9079 58.6408 42.907 58.6413C42.9068 58.6414 42.9067 58.6414 42.9065 58.6415L42.9019 58.6432C42.8982 58.6444 42.8964 58.6451 42.8939 58.6459C42.8915 58.6468 42.8887 58.6478 42.8832 58.6497C42.8685 58.6548 42.8405 58.6647 42.8105 58.6796C42.774 58.6977 42.736 58.7243 42.7033 58.7625C42.6861 58.7825 42.6735 58.8021 42.6644 58.8188C42.6522 58.8304 42.6354 58.8446 42.6117 58.8627C42.6037 58.8689 42.5911 58.8782 42.5764 58.8892C42.5446 58.9127 42.5026 58.9439 42.473 58.9678C42.4702 58.9702 42.4644 58.9745 42.4566 58.9805C42.4256 59.0041 42.3619 59.0525 42.3182 59.0946C42.3155 59.0963 42.31 59.0995 42.3005 59.1047C42.2986 59.1057 42.2953 59.1075 42.2914 59.1096C42.2807 59.1153 42.2646 59.1238 42.253 59.1303C42.2336 59.1412 42.2081 59.1562 42.1815 59.1755C42.1693 59.1843 42.16 59.1896 42.1414 59.2002C42.1303 59.2066 42.1157 59.2149 42.0952 59.227C42.0612 59.2471 42.0128 59.277 41.9643 59.3207C41.9594 59.3226 41.9536 59.3247 41.9476 59.3271C41.9386 59.3306 41.927 59.3353 41.9144 59.3412C41.9033 59.3464 41.8896 59.3533 41.8748 59.3621C41.8737 59.3626 41.8722 59.3633 41.8701 59.3642L41.8608 59.368C41.8571 59.3696 41.8524 59.3715 41.8475 59.3736C41.8377 59.3777 41.8244 59.3835 41.8097 59.3908C41.7482 59.4213 41.6813 59.4506 41.6107 59.4806C41.5432 59.5092 41.4893 59.5471 41.4558 59.5713C41.4431 59.5805 41.4332 59.5877 41.4252 59.5936C41.4069 59.607 41.3982 59.6133 41.3871 59.62C41.3199 59.6599 41.2681 59.7112 41.242 59.737C41.2403 59.7387 41.2387 59.7403 41.2373 59.7418C41.2069 59.7716 41.201 59.7758 41.2008 59.7759C41.1257 59.821 41.0416 59.8757 40.962 59.9426C40.9539 59.9494 40.9462 59.956 40.9396 59.9617C40.9325 59.9677 40.927 59.9725 40.9214 59.9772C40.9104 59.9866 40.9033 59.9922 40.8979 59.9962C40.8952 59.9982 40.8934 59.9995 40.8922 60.0002C40.8872 60.0018 40.8816 60.0035 40.8755 60.0054C40.8145 60.0239 40.7016 60.0582 40.5983 60.1549C40.5641 60.1868 40.5416 60.2196 40.5284 60.2406C40.527 60.2428 40.5256 60.2451 40.5243 60.2473C40.5221 60.2479 40.5198 60.2485 40.5175 60.2492C40.5157 60.2497 40.5137 60.2502 40.5116 60.2508C40.4992 60.2542 40.482 60.259 40.4662 60.2639C40.4339 60.2738 40.3998 60.2826 40.3581 60.2932C40.3553 60.2939 40.3524 60.2946 40.3495 60.2954C40.3118 60.3049 40.2675 60.316 40.2231 60.3292C40.1921 60.3384 40.1632 60.3506 40.1361 60.3658C40.1095 60.3808 40.0893 60.3961 40.0757 60.4071C40.0702 60.4116 40.0653 60.4158 40.0622 60.4185C40.0598 60.4197 40.0564 60.4215 40.0515 60.4241C40.0509 60.4244 40.0502 60.4248 40.0495 60.4251C40.0372 60.4315 40.0128 60.4442 39.9877 60.4605C39.9696 60.4722 39.955 60.4836 39.9448 60.4921C39.9394 60.4965 39.9341 60.5011 39.9301 60.5046C39.9134 60.513 39.8974 60.5187 39.8711 60.528C39.8501 60.5354 39.8225 60.5452 39.7827 60.5606C39.7347 60.5791 39.6888 60.6004 39.6531 60.617C39.6504 60.6182 39.6478 60.6194 39.6453 60.6206C39.6051 60.6393 39.5762 60.6523 39.549 60.6623C39.5393 60.6659 39.5298 60.6686 39.5057 60.6754C39.5037 60.676 39.5016 60.6766 39.4995 60.6772C39.4749 60.6842 39.436 60.6954 39.394 60.713C39.3473 60.7325 39.32 60.741 39.3003 60.7442C39.1881 60.7622 39.078 60.8143 39.0232 60.8402C39.0222 60.8407 39.0212 60.8412 39.0202 60.8416C39.0191 60.842 39.0173 60.8427 39.0147 60.8435C39.0146 60.8436 39.0138 60.8439 39.0125 60.8443C39.0055 60.8466 38.9838 60.8537 38.9742 60.8571C38.9568 60.8632 38.9311 60.8727 38.9036 60.8862C38.8765 60.8995 38.8393 60.9208 38.803 60.954C38.7786 60.9762 38.7568 60.9866 38.7016 61.0127C38.6786 61.0237 38.6497 61.0374 38.6123 61.0559C38.5887 61.0676 38.5699 61.0797 38.5578 61.0879C38.5547 61.0901 38.5517 61.0921 38.5491 61.094C38.4841 61.1183 38.4218 61.1532 38.3662 61.1978C38.3119 61.2415 38.2588 61.2809 38.2006 61.3241C38.1714 61.3458 38.1409 61.3685 38.1084 61.3931C38.0167 61.4623 37.9171 61.5411 37.824 61.6334C37.7887 61.6684 37.7662 61.6924 37.7481 61.7117C37.7246 61.7369 37.7086 61.754 37.6815 61.7768C37.6404 61.8114 37.6097 61.8499 37.5963 61.8668C37.5955 61.8678 37.5947 61.8687 37.594 61.8696C37.5858 61.8798 37.5818 61.8846 37.5803 61.8864C37.5165 61.942 37.4468 61.9913 37.3704 62.0361C37.3504 62.0478 37.3265 62.0614 37.3003 62.0762C37.2329 62.1144 37.1501 62.1612 37.0783 62.2086C36.9727 62.2783 36.8528 62.3719 36.7613 62.5022C36.7486 62.5203 36.7069 62.5812 36.6863 62.6518C36.6804 62.6721 36.671 62.7103 36.6724 62.7578C36.6739 62.8051 36.6878 62.8939 36.7637 62.9696C36.8421 63.0477 36.9364 63.062 36.9924 63.0614C37.0456 63.0608 37.0885 63.0474 37.1125 63.0387C37.1232 63.0348 37.1336 63.0316 37.152 63.026C37.1569 63.0245 37.1623 63.0229 37.1684 63.021C37.1931 63.0134 37.2299 63.0019 37.2683 62.9855C37.3826 62.9367 37.4787 62.858 37.535 62.811C37.6084 62.7497 37.6451 62.6613 37.6426 62.5731C37.6542 62.5664 37.6662 62.5594 37.6786 62.5522C37.786 62.4892 37.8886 62.4169 37.985 62.3323C38.0231 62.2989 38.0525 62.262 38.0653 62.2459C38.0663 62.2446 38.0672 62.2435 38.068 62.2425C38.0738 62.2353 38.0773 62.2311 38.079 62.229C38.129 62.1861 38.1864 62.1258 38.223 62.0874C38.2354 62.0743 38.2455 62.0638 38.2519 62.0574C38.316 61.994 38.3898 61.9345 38.4754 61.8699C38.4993 61.8518 38.5252 61.8326 38.5521 61.8125C38.6153 61.7656 38.6842 61.7144 38.7475 61.6635C38.7518 61.6601 38.7584 61.6563 38.7661 61.6539C38.827 61.6344 38.8711 61.6031 38.8866 61.5921L38.8875 61.5915L38.8936 61.5871C38.9002 61.584 38.9076 61.5806 38.9159 61.5768C38.9797 61.5473 39.0906 61.4962 39.1845 61.4196C39.1859 61.4191 39.1875 61.4186 39.1892 61.418L39.1922 61.417C39.1973 61.4153 39.204 61.4131 39.2105 61.411C39.2252 61.406 39.2503 61.3972 39.2768 61.3847C39.3072 61.3704 39.3328 61.3586 39.3568 61.3492C39.3818 61.3394 39.3944 61.3366 39.3972 61.3361C39.4902 61.3212 39.5714 61.2897 39.6299 61.2652C39.6353 61.2629 39.6435 61.2601 39.6664 61.2536C39.6685 61.253 39.6708 61.2523 39.6734 61.2516C39.6934 61.246 39.7265 61.2367 39.7597 61.2245C39.8134 61.2047 39.8633 61.1816 39.9018 61.1637L39.9038 61.1628C39.9447 61.1438 39.9737 61.1304 40.0024 61.1193C40.0086 61.1169 40.0178 61.1137 40.0293 61.1096C40.0795 61.0918 40.1732 61.0585 40.2464 61.0164C40.2847 60.9945 40.3131 60.9695 40.3235 60.9603C40.324 60.9599 40.3244 60.9596 40.3248 60.9593L40.3248 60.9592C40.3269 60.9581 40.3297 60.9566 40.3334 60.9547C40.3341 60.9543 40.3349 60.9539 40.3358 60.9535C40.3477 60.9473 40.3716 60.9348 40.3959 60.9192C40.4101 60.9102 40.4221 60.9014 40.4319 60.8937C40.4533 60.888 40.4762 60.8822 40.502 60.8757L40.5077 60.8742C40.5485 60.8639 40.5968 60.8516 40.646 60.8365C40.6529 60.8343 40.6605 60.8322 40.6733 60.8287C40.6758 60.828 40.6784 60.8272 40.6814 60.8264C40.697 60.8221 40.7183 60.816 40.7407 60.8088C40.7805 60.7957 40.8514 60.7702 40.9165 60.7194C40.959 60.6862 40.9863 60.6498 41.002 60.6265C41.0115 60.6124 41.0196 60.5986 41.0257 60.5877C41.0275 60.5871 41.0295 60.5864 41.0317 60.5857C41.0381 60.5836 41.0451 60.5814 41.0541 60.5785L41.0558 60.578C41.064 60.5754 41.0736 60.5724 41.0837 60.5691C41.2074 60.529 41.3006 60.4465 41.3405 60.4112C41.3457 60.4066 41.35 60.4028 41.3533 60.4C41.3985 60.3621 41.4524 60.3259 41.514 60.289C41.5815 60.2486 41.6332 60.1975 41.6596 60.1713C41.6612 60.1697 41.6627 60.1683 41.6641 60.1669C41.692 60.1394 41.6988 60.1341 41.699 60.1338C41.725 60.1184 41.7478 60.1026 41.7659 60.0896C41.7751 60.0831 41.784 60.0766 41.7915 60.0711L41.7944 60.0689C41.8011 60.064 41.8067 60.0599 41.8124 60.0558C41.8252 60.0465 41.8337 60.0407 41.8404 60.0366C41.8469 60.0327 41.8494 60.0316 41.8491 60.0317C41.9222 60.0007 42.0024 59.9658 42.0804 59.9271L42.0802 59.9272C42.0802 59.9272 42.0816 59.9266 42.0853 59.925L42.0937 59.9215L42.106 59.9164C42.1206 59.9103 42.1466 59.8992 42.1756 59.8827C42.1764 59.8823 42.1772 59.8821 42.1782 59.8817C42.1812 59.8807 42.1857 59.8791 42.1981 59.8745C42.2124 59.8691 42.2378 59.8594 42.265 59.8451C42.2914 59.8312 42.3331 59.8062 42.3718 59.7641C42.3723 59.7636 42.3791 59.7575 42.4051 59.7421C42.4124 59.7378 42.42 59.7334 42.4295 59.728L42.4311 59.7271C42.4397 59.7221 42.4499 59.7163 42.4603 59.7102C42.4823 59.6972 42.5099 59.6804 42.5386 59.6596C42.5383 59.6599 42.541 59.6579 42.5504 59.6526C42.5576 59.6486 42.5624 59.646 42.569 59.6425C42.5743 59.6397 42.5808 59.6363 42.5907 59.6309C42.6224 59.6137 42.6843 59.5799 42.7403 59.5243C42.7558 59.509 42.7659 59.5015 42.784 59.4881C42.7994 59.4766 42.8208 59.4608 42.8563 59.432C42.8793 59.4133 42.8962 59.4009 42.9173 59.3855C42.9344 59.3729 42.9543 59.3583 42.9823 59.3368C43.0277 59.302 43.0846 59.2556 43.1367 59.1961C43.1372 59.1959 43.1378 59.1957 43.1383 59.1954C43.1846 59.1765 43.2347 59.1466 43.2494 59.1378C43.2513 59.1367 43.2526 59.1359 43.2532 59.1355C43.2787 59.1211 43.3014 59.1045 43.3215 59.0862C43.3362 59.0728 43.3477 59.0601 43.3557 59.0508C43.3573 59.0496 43.359 59.0483 43.361 59.0468C43.3679 59.0418 43.3775 59.0347 43.3938 59.0222C43.4185 59.0034 43.4625 58.9689 43.5014 58.9218C43.5116 58.9094 43.5198 58.8984 43.5256 58.8905L43.5318 58.882C43.5351 58.8792 43.5369 58.8777 43.5382 58.8768M42.8904 58.6674L42.8904 58.6673C42.8902 58.6676 42.8902 58.6676 42.8904 58.6674ZM43.312 58.3134C43.3113 58.3142 43.3114 58.3141 43.312 58.3133L43.312 58.3134ZM43.3332 58.3026C43.3323 58.3042 43.3324 58.3039 43.3334 58.3022C43.3333 58.3023 43.3332 58.3024 43.3332 58.3026ZM43.474 58.1368C43.474 58.1368 43.4741 58.1366 43.4743 58.1361C43.4741 58.1366 43.474 58.1368 43.474 58.1368ZM44.0221 58.391C44.0178 58.4001 44.0123 58.4109 44.0059 58.422C43.967 58.4894 43.9067 58.5579 43.8777 58.5899C43.8653 58.6035 43.8536 58.6145 43.8444 58.6226C43.8294 58.6445 43.8079 58.6711 43.7776 58.6965C43.7763 58.698 43.775 58.6996 43.7739 58.7008C43.7612 58.7157 43.731 58.7511 43.6818 58.783C43.6775 58.7873 43.6725 58.7921 43.667 58.7971C43.6456 58.8165 43.6111 58.8432 43.5626 58.8627C43.5611 58.8635 43.5589 58.8647 43.5555 58.8667C43.5521 58.8687 43.5452 58.8726 43.539 58.8761M43.7063 58.7564C43.7062 58.7565 43.7059 58.7568 43.7054 58.7574C43.706 58.7567 43.7063 58.7564 43.7063 58.7564ZM43.8687 58.5819C43.8688 58.5816 43.869 58.5814 43.8691 58.5811L43.8689 58.5815C43.8688 58.5816 43.8688 58.5817 43.8687 58.5819ZM42.6423 58.8679C42.6422 58.8682 42.6422 58.868 42.6424 58.8676L42.6423 58.8679ZM40.0559 60.4239C40.0558 60.4239 40.0559 60.4239 40.0559 60.4239Z" fill="black"/>
<path fill-rule="evenodd" clip-rule="evenodd" d="M43.7381 58.0248C43.8741 57.9286 44.0631 57.9598 44.1602 58.0945C44.2035 58.1546 44.2223 58.215 44.2304 58.2417C44.2324 58.2482 44.2342 58.2546 44.2356 58.2592C44.2357 58.2597 44.2359 58.2602 44.236 58.2607C44.237 58.2642 44.2378 58.2668 44.2384 58.2689C44.2386 58.2693 44.2389 58.2697 44.2392 58.2702C44.2425 58.2761 44.2495 58.2885 44.2553 58.2997C44.2629 58.3142 44.274 58.3366 44.2836 58.3637C44.2917 58.3864 44.3005 58.4173 44.3043 58.4542C44.3049 58.4557 44.3056 58.4576 44.3065 58.4597C44.3094 58.4669 44.3118 58.4724 44.3151 58.48C44.3172 58.4848 44.3197 58.4904 44.3229 58.4978C44.3294 58.513 44.3391 58.5359 44.3475 58.5609C44.4003 58.718 44.3147 58.8878 44.1561 58.9402C43.9976 58.9925 43.8262 58.9076 43.7733 58.7505L43.7733 58.7506C43.7733 58.7506 43.7729 58.7493 43.7717 58.7462C43.7704 58.743 43.7687 58.7388 43.7661 58.733C43.7652 58.7308 43.764 58.7279 43.7625 58.7245C43.7579 58.7141 43.7513 58.6989 43.746 58.686C43.7358 58.6612 43.7168 58.614 43.707 58.5559C43.7045 58.5513 43.7014 58.5456 43.6981 58.5395C43.6942 58.532 43.6894 58.5224 43.6845 58.5115C43.673 58.486 43.6654 58.4629 43.6606 58.4474C43.6582 58.4396 43.656 58.4322 43.6545 58.427L43.6542 58.426C43.6535 58.4234 43.6529 58.4213 43.6523 58.4195C43.5745 58.2872 43.6099 58.1155 43.7381 58.0248Z" fill="black"/>
<path fill-rule="evenodd" clip-rule="evenodd" d="M44.3613 58.6235C44.3436 58.4612 44.1977 58.3424 44.033 58.3572C43.8666 58.3722 43.7439 58.518 43.7591 58.6829C43.7655 58.7532 43.7852 58.811 43.8008 58.8508C43.808 58.8691 43.8156 58.8867 43.821 58.8992C43.8214 58.8999 43.8217 58.9007 43.822 58.9014C43.8282 58.9156 43.8319 58.9244 43.8349 58.9322V58.9322C43.8349 58.9322 43.8352 58.933 43.8358 58.9346C43.8364 58.9365 43.8372 58.939 43.8384 58.9426L43.8424 58.9558C43.844 58.9609 43.8459 58.9672 43.848 58.9737C43.8554 58.9969 43.8706 59.0433 43.8983 59.0904C43.9021 59.097 43.9073 59.1094 43.9239 59.1586C43.933 59.1858 43.9436 59.2091 43.9505 59.2238C43.9539 59.2309 43.9573 59.2379 43.9598 59.2431L43.9603 59.2443C43.9626 59.2489 43.9643 59.2524 43.9658 59.2555C43.9717 59.2927 43.9823 59.3264 43.9897 59.3474C43.9956 59.3642 44.004 59.3854 44.0152 59.4074C44.0186 59.4141 44.0263 59.4293 44.0387 59.4477C44.0407 59.4545 44.0435 59.4632 44.0469 59.4729C44.0507 59.4835 44.056 59.4973 44.0632 59.5126C44.0699 59.5266 44.077 59.5404 44.0821 59.5504L44.0824 59.5512C44.0882 59.5625 44.0922 59.5702 44.0957 59.5776C44.0984 59.5831 44.1 59.5867 44.1009 59.5889C44.1136 59.6397 44.1321 59.6804 44.1433 59.7043C44.146 59.71 44.1487 59.7156 44.1508 59.72L44.1514 59.7213C44.1538 59.7263 44.1555 59.7299 44.1571 59.7332C44.16 59.7395 44.1609 59.7416 44.1609 59.7416C44.1751 59.7798 44.186 59.8098 44.195 59.8397C44.21 59.8892 44.2378 59.9524 44.2505 59.9812C44.2517 59.9841 44.2528 59.9866 44.2538 59.9887L44.2555 59.9948C44.2566 59.9991 44.2585 60.0056 44.2607 60.0129C44.2667 60.0328 44.2795 60.0727 44.3071 60.1167C44.31 60.1294 44.3149 60.1502 44.3211 60.1705C44.3282 60.1938 44.3409 60.2301 44.3645 60.269C44.3647 60.2696 44.3649 60.2703 44.3652 60.271C44.3655 60.2719 44.3658 60.273 44.3662 60.2742C44.3677 60.2791 44.3699 60.286 44.3723 60.2934C44.3773 60.3084 44.3847 60.3292 44.3954 60.3524C44.419 60.4036 44.4298 60.4293 44.434 60.446C44.4457 60.4924 44.4616 60.5289 44.4707 60.5496C44.4726 60.5539 44.474 60.5571 44.4752 60.5597C44.4773 60.5645 44.4785 60.5673 44.4801 60.571C44.4818 60.575 44.4821 60.5761 44.482 60.5757C44.4857 60.5871 44.4894 60.5977 44.4923 60.6061C44.4933 60.609 44.4943 60.6116 44.4951 60.6139C44.4969 60.6191 44.4983 60.6231 44.4999 60.6276C44.5042 60.6402 44.505 60.6435 44.505 60.6435C44.5173 60.6986 44.5396 60.7444 44.547 60.7596L44.5471 60.7599C44.5499 60.773 44.553 60.7842 44.5556 60.793C44.5562 60.795 44.5568 60.7969 44.5573 60.7987C44.5575 60.8015 44.5576 60.8043 44.5578 60.807C44.5608 60.8635 44.5633 60.9104 44.5633 60.9587V61.0702C44.5633 61.0814 44.5635 61.092 44.5638 61.1008C44.5639 61.1059 44.5642 61.1122 44.5643 61.1176C44.5644 61.1204 44.5645 61.123 44.5646 61.125C44.5648 61.1329 44.565 61.1391 44.565 61.144C44.5461 61.1862 44.5352 61.2262 44.5287 61.2532C44.5193 61.292 44.5135 61.3289 44.5098 61.3543C44.4979 61.437 44.4981 61.5205 44.4982 61.5788C44.4982 61.5841 44.4982 61.5893 44.4982 61.5942V61.6726C44.4982 61.702 44.4928 61.7184 44.4708 61.7858C44.4655 61.802 44.4593 61.8211 44.4519 61.8441C44.3863 62.0483 44.327 62.2256 44.2401 62.3787C44.216 62.4212 44.1997 62.4492 44.1808 62.4767C44.1602 62.5067 44.142 62.5372 44.1285 62.5598L44.1264 62.5634C44.1125 62.5866 44.1028 62.6029 44.0928 62.6181C44.0817 62.635 44.0749 62.643 44.0721 62.6461C44.0699 62.6472 44.0664 62.6488 44.0613 62.6509C44.0534 62.6541 44.0439 62.6574 44.0325 62.661C44.0308 62.6613 44.0287 62.6617 44.026 62.6622C44.0246 62.6624 44.0231 62.6627 44.0214 62.6629C44.0097 62.665 43.9907 62.6682 43.9722 62.6721C43.9525 62.6762 43.9184 62.6839 43.8831 62.6977C43.8652 62.7047 43.8378 62.7168 43.8086 62.7365C43.7813 62.755 43.7334 62.7931 43.7003 62.8587C43.6255 63.0069 43.6861 63.187 43.8356 63.261C43.9283 63.307 44.0335 63.3013 44.1178 63.255C44.1198 63.2547 44.1219 63.2543 44.1242 63.2539C44.1262 63.2535 44.1284 63.2532 44.1307 63.2528C44.1376 63.2515 44.1472 63.2499 44.1567 63.248C44.165 63.2463 44.1807 63.2431 44.198 63.2379C44.2484 63.2229 44.3265 63.1968 44.4001 63.1504C44.4994 63.0877 44.5617 63.0034 44.5998 62.9456C44.6174 62.9188 44.6337 62.8915 44.646 62.8708C44.6472 62.8688 44.6484 62.8669 44.6495 62.865C44.6636 62.8413 44.6729 62.8262 44.6813 62.8139C44.7163 62.7628 44.7439 62.7144 44.7676 62.6727C44.8895 62.4579 44.9654 62.2227 45.0286 62.0259C45.0314 62.0172 45.0348 62.0071 45.0387 61.9959C45.0629 61.925 45.1034 61.8067 45.1034 61.6726V61.5919C45.1034 61.5204 45.1034 61.4776 45.109 61.4391C45.1116 61.4207 45.1144 61.4047 45.1174 61.3922C45.1179 61.3903 45.1183 61.3886 45.1187 61.3873C45.1631 61.3016 45.1686 61.2163 45.1699 61.1731C45.1707 61.147 45.17 61.1227 45.1695 61.1059C45.1693 61.101 45.1692 61.0968 45.1691 61.0932C45.1687 61.082 45.1685 61.0761 45.1685 61.0702V60.9587C45.1685 60.8931 45.165 60.828 45.162 60.7717C45.1614 60.7618 45.1609 60.7521 45.1604 60.7427C45.1576 60.6889 45.1441 60.6476 45.1387 60.6311C45.1385 60.6306 45.1383 60.6301 45.1382 60.6296C45.1269 60.572 45.1057 60.5276 45.0972 60.5097C45.0968 60.5089 45.0964 60.5081 45.0961 60.5074C45.0946 60.5043 45.0935 60.5019 45.0926 60.4999C45.086 60.4735 45.0783 60.4505 45.0728 60.4342C45.0687 60.4225 45.0662 60.4154 45.0643 60.41C45.062 60.4036 45.0605 60.3994 45.0582 60.3922C45.0472 60.3585 45.0335 60.3278 45.0272 60.3139C45.0264 60.3121 45.0258 60.3106 45.0252 60.3095C45.0225 60.3032 45.0212 60.2999 45.0206 60.2986C45.0013 60.223 44.9677 60.1505 44.9487 60.1093C44.9482 60.1083 44.9478 60.1073 44.9473 60.1064L44.9472 60.1059C44.9465 60.104 44.9457 60.1015 44.9444 60.0971C44.9442 60.0965 44.944 60.0958 44.9437 60.0951C44.9426 60.0913 44.9409 60.0859 44.9392 60.0807C44.933 60.0614 44.9207 60.024 44.897 59.9822C44.8966 59.9806 44.8962 59.9788 44.8958 59.9769L44.8955 59.9758C44.8924 59.9621 44.8859 59.9329 44.875 59.9024C44.8672 59.8802 44.8545 59.8495 44.8336 59.8168C44.8321 59.8116 44.8302 59.8055 44.828 59.7988C44.8251 59.7899 44.8213 59.7793 44.8165 59.7676C44.804 59.7374 44.7958 59.719 44.7899 59.7058C44.7825 59.6892 44.7787 59.6807 44.7747 59.6673C44.7598 59.618 44.7431 59.5728 44.7284 59.5334C44.7207 59.5127 44.7126 59.4948 44.7065 59.4816C44.7034 59.475 44.7004 59.4688 44.698 59.4639L44.6976 59.4629C44.6953 59.4581 44.6936 59.4546 44.6919 59.4511C44.6895 59.446 44.6882 59.4428 44.6875 59.4411C44.6747 59.3897 44.6547 59.3459 44.6419 59.3193C44.6352 59.3055 44.6284 59.2921 44.6234 59.2823L44.6226 59.2807C44.6201 59.2759 44.6181 59.272 44.6164 59.2686V59.2686C44.6162 59.2679 44.616 59.2671 44.6158 59.2663C44.6145 59.2617 44.6124 59.2544 44.61 59.2465C44.6054 59.2317 44.5968 59.2053 44.5824 59.1762C44.5767 59.1648 44.5694 59.1515 44.56 59.1371C44.5487 59.0758 44.5262 59.0275 44.5162 59.0063L44.5161 59.0059C44.5123 58.9979 44.5086 58.9903 44.5059 58.9847C44.5029 58.9784 44.5009 58.9744 44.4991 58.9706C44.4981 58.9683 44.4974 58.9668 44.497 58.9658C44.4965 58.9644 44.496 58.9628 44.4954 58.9613C44.4835 58.9255 44.4619 58.8608 44.4269 58.7985C44.4264 58.7971 44.4258 58.7953 44.4251 58.793C44.424 58.7896 44.4229 58.7859 44.4213 58.7809C44.4212 58.7803 44.421 58.7797 44.4208 58.7791C44.4195 58.7748 44.4178 58.7695 44.4161 58.7642C44.4124 58.7522 44.4069 58.7353 44.3998 58.717C44.3922 58.6974 44.3842 58.679 44.3786 58.6659L44.3782 58.6651C44.3719 58.6504 44.3681 58.6416 44.3649 58.6335C44.3629 58.6285 44.3618 58.6253 44.3613 58.6235ZM44.5631 60.8165L44.5633 60.8169C44.5636 60.8179 44.5635 60.8177 44.5631 60.8165Z" fill="black"/>
<path fill-rule="evenodd" clip-rule="evenodd" d="M44.7927 61.6127C44.9598 61.6127 45.0953 61.747 45.0953 61.9126V62.055C45.0953 62.1469 45.0702 62.2438 45.0596 62.285C45.0578 62.292 45.0563 62.2975 45.0556 62.301C45.0298 62.4157 44.989 62.5225 44.9534 62.6106C44.9441 62.6338 44.9341 62.6532 44.9264 62.6672C44.9208 62.6775 44.9142 62.6889 44.9107 62.695C44.91 62.6962 44.9094 62.6973 44.9089 62.698C44.9082 62.6992 44.9076 62.7003 44.9071 62.7012C44.9014 62.7177 44.8939 62.736 44.8846 62.7546L44.8842 62.7554C44.8772 62.7694 44.8487 62.8261 44.7906 62.8722C44.758 62.898 44.7167 62.9272 44.6632 62.9504C44.6322 62.9638 44.6022 62.973 44.5741 62.9796C44.5716 62.9834 44.569 62.9876 44.566 62.9924C44.5642 62.9953 44.562 62.9988 44.5596 63.0027C44.5538 63.0121 44.5465 63.0239 44.5401 63.0339C44.5216 63.0631 44.4913 63.109 44.4496 63.1521C44.3339 63.2715 44.1423 63.2754 44.0218 63.1607C43.9015 63.0463 43.8973 62.8571 44.0122 62.7376C44.0122 62.7376 44.0168 62.732 44.0281 62.7142C44.03 62.7112 44.0329 62.7065 44.0366 62.7006C44.0484 62.6815 44.0677 62.6503 44.0838 62.627C44.1266 62.565 44.2172 62.4483 44.3797 62.407C44.3809 62.4049 44.382 62.403 44.383 62.4013L44.3835 62.4005C44.386 62.3961 44.3877 62.3931 44.3891 62.3908C44.3911 62.3872 44.3922 62.3854 44.3934 62.3833C44.426 62.3023 44.4505 62.2345 44.4648 62.1709C44.4688 62.1528 44.4731 62.1355 44.4765 62.122C44.4768 62.121 44.477 62.1199 44.4773 62.119C44.481 62.1038 44.4836 62.0932 44.4858 62.0834C44.4898 62.0648 44.4901 62.0577 44.4901 62.055V61.9126C44.4901 61.747 44.6256 61.6127 44.7927 61.6127Z" fill="black"/>
<path fill-rule="evenodd" clip-rule="evenodd" d="M43.6 58.3882C43.7626 58.3499 43.9257 58.4495 43.9643 58.6106C43.9686 58.6285 43.9727 58.6455 43.9765 58.6618C44.0009 58.7646 44.0181 58.8373 44.0482 58.9066C44.0903 59.0034 44.1555 59.0982 44.2393 59.219C44.2668 59.2587 44.2959 59.2978 44.3283 59.3415C44.3323 59.347 44.3363 59.3524 44.3405 59.358C44.3766 59.4067 44.4164 59.4609 44.4544 59.5178C44.5306 59.632 44.6082 59.7699 44.6501 59.936C44.6714 60.0203 44.6712 60.1022 44.6696 60.1569C44.6684 60.1945 44.6671 60.2162 44.6661 60.2337C44.6649 60.2523 44.6641 60.266 44.6641 60.2886C44.6641 60.4385 44.6931 60.5771 44.7492 60.7359C44.7748 60.8082 44.7943 60.8825 44.7943 60.9823C44.7943 61.0206 44.7944 61.0596 44.7945 61.0992C44.7952 61.2934 44.7959 61.5013 44.7808 61.7072C44.7711 61.839 44.7437 61.9653 44.7145 62.0785C44.7368 62.1085 44.7592 62.143 44.7785 62.1815C44.8144 62.2528 44.8511 62.361 44.8299 62.4871C44.8186 62.5544 44.7945 62.6109 44.782 62.6397C44.7685 62.671 44.7473 62.7096 44.7131 62.7464C44.6769 62.7855 44.6361 62.8118 44.5966 62.8292C44.5619 62.8445 44.5308 62.8515 44.5183 62.8542C44.5035 62.8575 44.5022 62.8576 44.5015 62.8577C44.5009 62.8578 44.5006 62.8578 44.4951 62.8591C44.4516 62.8693 44.4086 62.8762 44.3675 62.8811C44.329 62.9298 44.2837 62.9766 44.2282 63.0204C44.152 63.0804 44.1059 63.131 44.0897 63.1636C44.0679 63.2075 44.0412 63.2423 44.0289 63.2583C44.024 63.2647 44.0215 63.2679 44.0195 63.2705C44.0174 63.2731 44.0159 63.275 44.0129 63.279C44.0111 63.2813 44.0101 63.2827 44.0097 63.2833C44.0093 63.2839 44.0094 63.2837 44.0099 63.283C43.9588 63.3618 43.8882 63.3982 43.8517 63.4139C43.8119 63.4309 43.7749 63.439 43.7522 63.4433C43.7281 63.4478 43.7059 63.4503 43.6937 63.4517C43.6863 63.4525 43.6824 63.453 43.6809 63.4532C43.5301 63.4808 43.3721 63.4948 43.2328 63.5071C43.1972 63.5103 43.1628 63.5133 43.13 63.5165C43.0136 63.5276 42.8971 63.5291 42.7954 63.5303C42.7795 63.5305 42.7639 63.5307 42.7488 63.5309C42.6311 63.5327 42.5312 63.5362 42.4355 63.5513C42.3684 63.5619 42.3183 63.575 42.2564 63.5912C42.2121 63.6028 42.1618 63.616 42.0949 63.631C41.9441 63.6647 41.7925 63.6427 41.7007 63.6266C41.6992 63.6263 41.6989 63.6263 41.6981 63.6261C41.6972 63.626 41.6958 63.6258 41.6913 63.625C41.6861 63.6241 41.677 63.6225 41.6665 63.6203C41.6509 63.6169 41.6046 63.6066 41.5558 63.5775C41.4986 63.5434 41.4214 63.4719 41.4031 63.3528C41.3874 63.2508 41.4253 63.1721 41.4455 63.1368C41.483 63.0713 41.5316 63.0246 41.5636 62.9965C41.5862 62.9767 41.6174 62.9523 41.6325 62.9405C41.6362 62.9377 41.6389 62.9355 41.6403 62.9344C41.6427 62.9325 41.6452 62.9305 41.6479 62.9283C41.6728 62.9082 41.7086 62.8794 41.7519 62.8507C41.7609 62.8175 41.772 62.791 41.7666 62.8057C41.797 62.7231 41.842 62.6213 41.9073 62.5298C42.0298 62.3583 42.214 62.2566 42.3246 62.1956C42.3286 62.1933 42.3325 62.1912 42.3363 62.1891C42.3637 62.1739 42.3913 62.1594 42.419 62.1454C42.4508 62.0968 42.4834 62.0517 42.5143 62.0106C42.4753 62.0269 42.3831 62.0559 42.2761 62.0119C42.2532 62.0025 42.2332 61.9913 42.2156 61.979C42.145 61.9819 42.0377 61.9704 41.9412 61.8907C41.8842 61.8437 41.8533 61.7885 41.8365 61.7494C41.8195 61.7099 41.8111 61.6731 41.8065 61.6476C41.8017 61.6214 41.7993 61.5976 41.7979 61.5824C41.7975 61.5777 41.7969 61.5716 41.7966 61.5673C41.7964 61.5656 41.7963 61.5641 41.7962 61.5633C41.7958 61.5587 41.7956 61.5572 41.7956 61.5572L41.7957 61.5572C41.784 61.462 41.7809 61.3656 41.7892 61.2668C41.6969 61.3036 41.6047 61.3437 41.513 61.3861C41.3786 61.4483 41.2228 61.5143 41.0402 61.5456C40.8322 61.5812 40.6237 61.5849 40.4271 61.5732C40.2835 61.5646 40.0948 61.54 39.9199 61.4385C39.8913 61.4219 39.8519 61.3941 39.8178 61.3576L39.8176 61.3573C39.8057 61.3445 39.7599 61.2956 39.7386 61.2192C39.726 61.1742 39.7168 61.1004 39.7504 61.0194C39.7852 60.9354 39.8483 60.886 39.8996 60.8606C39.9524 60.8344 40.0031 60.8257 40.0263 60.8222C40.0543 60.818 40.0796 60.8164 40.0921 60.8156C40.13 60.8133 40.1748 60.7914 40.3024 60.7247C40.3195 60.7158 40.338 60.7036 40.3735 60.6795C40.3747 60.6787 40.376 60.6778 40.3772 60.677C40.4079 60.6561 40.4537 60.625 40.5054 60.5982C40.5955 60.5513 40.7087 60.523 40.7667 60.5085C40.7781 60.5057 40.7873 60.5033 40.7939 60.5015C40.8425 60.488 40.8968 60.4651 40.9684 60.4349C40.9756 60.4319 40.983 60.4287 40.9906 60.4256C41.1023 60.3785 41.2093 60.3278 41.3056 60.2716C41.3229 60.2616 41.3424 60.2497 41.3638 60.2368C41.4417 60.1896 41.5439 60.1276 41.6482 60.0833C41.6764 60.0714 41.7024 60.0605 41.7271 60.0503C41.7879 60.025 41.8404 60.0031 41.8953 59.9767C42.0719 59.8918 42.2307 59.7805 42.415 59.6512C42.433 59.6386 42.4513 59.6258 42.4698 59.6128C42.5576 59.5514 42.6464 59.5064 42.7316 59.4692C42.7476 59.4622 42.7559 59.4561 42.764 59.4487C42.7752 59.4385 42.79 59.422 42.8181 59.385C42.8323 59.3662 42.8478 59.3446 42.865 59.3208C42.9616 59.1864 43.107 58.9841 43.3222 58.8627C43.3434 58.8508 43.3678 58.8396 43.3946 58.8303C43.3914 58.8171 43.3885 58.8044 43.3856 58.7921C43.3821 58.777 43.3787 58.7627 43.3755 58.7492C43.3369 58.5881 43.4374 58.4265 43.6 58.3882Z" fill="black"/>
<path d="M34.4052 56.8382C35.9899 56.5963 36.6597 56.208 37.6238 55.2512L39.1308 59.5139C38.4403 60.191 38.0138 60.4097 37.185 60.4697L34.4052 56.8382Z" fill="black"/>
<path fill-rule="evenodd" clip-rule="evenodd" d="M39.0036 61.4614C38.9815 61.4669 38.9587 61.4747 38.9407 61.4822C38.9228 61.4897 38.9039 61.4966 38.8918 61.501L38.8899 61.5017C38.8766 61.5066 38.8677 61.5098 38.86 61.5129C38.8297 61.5403 38.8032 61.5606 38.7809 61.5778C38.779 61.5793 38.7771 61.5807 38.7753 61.5821C38.6986 61.6413 38.6195 61.6652 38.5726 61.6775C38.5582 61.6812 38.538 61.686 38.5257 61.6889C38.5216 61.6899 38.5183 61.6907 38.5165 61.6911C38.503 61.6944 38.4977 61.6961 38.4956 61.6968C38.4438 61.7153 38.3883 61.7294 38.35 61.7391C38.3432 61.7408 38.3369 61.7424 38.3313 61.7439C38.2861 61.7556 38.2627 61.7631 38.2463 61.7707C38.1775 61.8025 38.11 61.817 38.069 61.8254C38.0544 61.8284 38.0427 61.8307 38.0331 61.8326C38.0087 61.8374 37.9978 61.8396 37.9854 61.8434C37.9384 61.8578 37.8866 61.8681 37.8558 61.8743C37.8495 61.8755 37.8441 61.8766 37.8398 61.8775C37.8048 61.8848 37.7942 61.8889 37.7899 61.8908C37.7145 61.9261 37.6399 61.9422 37.5868 61.9518C37.5482 61.9587 37.5287 61.9616 37.5129 61.9638C37.4971 61.9661 37.485 61.9679 37.4611 61.9727C37.3912 61.9869 37.3013 61.9974 37.2343 62.0052C37.2067 62.0084 37.1831 62.0112 37.1663 62.0135C37.1549 62.0152 37.1404 62.0183 37.1133 62.0253C37.1101 62.0261 37.1066 62.027 37.1028 62.028C37.0794 62.034 37.045 62.0429 37.0104 62.0496C36.9053 62.07 36.788 62.0676 36.7173 62.0661C36.7024 62.0658 36.6896 62.0655 36.6794 62.0655C36.636 62.0655 36.5945 62.0629 36.5632 62.0609L36.56 62.0607C36.5253 62.0585 36.5018 62.0571 36.4797 62.0571C36.3123 62.0571 36.1442 62.0603 35.975 62.0645C35.9719 62.0657 35.9685 62.0668 35.9649 62.0681C35.9464 62.0743 35.9192 62.0822 35.8859 62.0865C35.8358 62.0931 35.7928 62.0886 35.7631 62.0836C35.7342 62.0787 35.7092 62.0715 35.6967 62.0679C35.6913 62.0663 35.6891 62.0657 35.6873 62.0652C35.6866 62.065 35.686 62.0648 35.6853 62.0646C35.6135 62.0609 35.546 62.0497 35.4962 62.0415C35.4938 62.0411 35.4914 62.0407 35.4891 62.0404C35.4271 62.0302 35.389 62.0244 35.3542 62.0235C35.2906 62.0218 35.2301 62.0222 35.1642 62.0227C35.1321 62.0229 35.0987 62.0231 35.0631 62.0231C35.0406 62.0231 35.024 62.0243 35 62.026C34.9827 62.0272 34.9617 62.0286 34.9318 62.0301C34.876 62.0329 34.7951 62.0347 34.7091 62.0166C34.6917 62.0129 34.6749 62.013 34.6156 62.0131C34.6089 62.0131 34.6016 62.0131 34.5937 62.0132C34.5311 62.0133 34.4235 62.0127 34.31 61.9709C34.2792 61.9595 34.2538 61.9553 34.2324 61.9553C34.1393 61.9553 34.0487 61.9402 33.9869 61.9298C33.9746 61.9278 33.9635 61.9259 33.9536 61.9244C33.9366 61.9217 33.9194 61.9202 33.8901 61.9175C33.8872 61.9173 33.8842 61.917 33.881 61.9167C33.8501 61.9139 33.8063 61.9098 33.7595 61.9009C33.7154 61.8924 33.6711 61.8806 33.6391 61.8719C33.6176 61.8777 33.5987 61.8804 33.5848 61.8816C33.5385 61.8857 33.5019 61.8783 33.4866 61.8749C33.4681 61.8708 33.4532 61.8658 33.4443 61.8626C33.4281 61.8568 33.4136 61.8504 33.4089 61.8483C33.4087 61.8481 33.4084 61.848 33.4083 61.848C33.4081 61.8479 33.4079 61.8478 33.4078 61.8477C33.3958 61.8433 33.3867 61.8398 33.3796 61.837C33.3453 61.8357 33.3129 61.8359 33.2817 61.8378C33.143 61.8466 32.9645 61.843 32.786 61.7584C32.7289 61.7528 32.6363 61.7315 32.5567 61.6526C32.5469 61.643 32.5264 61.6215 32.5075 61.5897C32.4919 61.5632 32.4511 61.4854 32.4709 61.3811C32.4943 61.258 32.5817 61.1921 32.6386 61.1651C32.6885 61.1415 32.7325 61.1373 32.7489 61.1361C32.785 61.1335 32.8144 61.1378 32.8226 61.139C32.8227 61.139 32.8228 61.139 32.8229 61.1391C32.8355 61.1409 32.8465 61.1432 32.8533 61.1447C32.8583 61.1458 32.8638 61.147 32.8688 61.1482C32.8884 61.1466 32.9027 61.1473 32.9071 61.1475C32.9073 61.1475 32.9075 61.1475 32.9077 61.1475C32.9265 61.1483 32.9418 61.1508 32.9459 61.1514L32.9461 61.1515C32.9571 61.1533 32.9678 61.1555 32.9751 61.1571C32.9753 61.1571 32.9805 61.1579 32.9933 61.1585C33.001 61.1589 33.0095 61.1591 33.0205 61.1594C33.0226 61.1594 33.0249 61.1595 33.0273 61.1595C33.0362 61.1597 33.0471 61.16 33.0572 61.1603C33.1182 61.1622 33.1761 61.1692 33.22 61.1746L33.2209 61.1747C33.2691 61.1805 33.302 61.1845 33.3335 61.1858C33.3353 61.1859 33.337 61.186 33.3385 61.186C33.3477 61.1861 33.3552 61.1862 33.361 61.1863L33.3613 61.1863C33.3635 61.1863 33.3713 61.1865 33.3795 61.187L33.3797 61.187C33.3813 61.1871 33.3906 61.1877 33.402 61.1893C33.4056 61.1898 33.4118 61.1908 33.4195 61.1923C33.4249 61.1934 33.4417 61.1968 33.4623 61.2041C33.4722 61.2076 33.4929 61.2155 33.5169 61.23C33.5214 61.2327 33.5289 61.2373 33.5382 61.244C33.5426 61.2453 33.5477 61.2467 33.5531 61.2483C33.5714 61.25 33.5892 61.2519 33.6063 61.2537C33.6731 61.2607 33.7322 61.2757 33.7746 61.287C33.7851 61.2898 33.7945 61.2923 33.803 61.2946C33.8335 61.3028 33.8528 61.308 33.8741 61.3121C33.8885 61.3148 33.9058 61.3168 33.9361 61.3196C33.9391 61.3198 33.9423 61.3201 33.9456 61.3204C33.9719 61.3227 34.0094 61.3261 34.0471 61.3319C34.0702 61.3355 34.0899 61.3387 34.1072 61.3415C34.1634 61.3507 34.1941 61.3556 34.2324 61.3556C34.3369 61.3556 34.4339 61.3768 34.521 61.4089C34.5239 61.4099 34.5354 61.4136 34.5925 61.4135C34.5976 61.4135 34.6036 61.4134 34.6103 61.4134C34.6593 61.4128 34.7482 61.4117 34.8351 61.4301C34.8418 61.4315 34.8589 61.4333 34.9016 61.4312C34.9087 61.4308 34.919 61.4302 34.9314 61.4294C34.9675 61.427 35.0213 61.4235 35.0631 61.4235C35.0898 61.4235 35.1183 61.4233 35.1479 61.4231C35.2189 61.4226 35.2964 61.4221 35.3703 61.4241C35.4509 61.4262 35.5275 61.4388 35.5826 61.4479L35.5881 61.4488C35.6505 61.459 35.6889 61.465 35.7244 61.466C35.7647 61.4673 35.7986 61.4743 35.8201 61.4795C35.8221 61.48 35.824 61.4805 35.8259 61.481C35.8517 61.4738 35.8856 61.467 35.9239 61.466C36.1069 61.4612 36.2928 61.4574 36.4797 61.4574C36.523 61.4574 36.5645 61.4601 36.5958 61.4621L36.599 61.4623C36.6337 61.4645 36.6572 61.4659 36.6794 61.4659C36.7152 61.4659 36.7442 61.4663 36.7684 61.4667C36.8268 61.4676 36.8583 61.4681 36.8943 61.4611C36.9091 61.4582 36.923 61.4547 36.947 61.4485C36.9516 61.4473 36.9566 61.446 36.962 61.4446C36.9914 61.4371 37.0336 61.4266 37.0807 61.4199C37.1328 61.4125 37.1723 61.4082 37.2066 61.4044C37.2544 61.3991 37.2921 61.395 37.3395 61.3853C37.3662 61.3799 37.4206 61.3712 37.4532 61.3659C37.4658 61.3639 37.4751 61.3624 37.4784 61.3618C37.5145 61.3553 37.5278 61.3503 37.5318 61.3485C37.6026 61.3154 37.6704 61.3001 37.7147 61.2908C37.7305 61.2875 37.743 61.285 37.7534 61.2829C37.7785 61.2778 37.7911 61.2753 37.8061 61.2706C37.8365 61.2613 37.8651 61.2547 37.8881 61.2499C37.9001 61.2473 37.9178 61.2438 37.9313 61.2412C37.9381 61.2398 37.9438 61.2387 37.9472 61.238C37.9636 61.2347 37.9741 61.2322 37.9819 61.23C37.9877 61.2284 37.9903 61.2274 37.9906 61.2272C38.0605 61.1949 38.1299 61.1762 38.1782 61.1637C38.189 61.1609 38.1987 61.1584 38.2076 61.1562C38.2453 61.1465 38.268 61.1407 38.2906 61.1326C38.3222 61.1214 38.3512 61.1139 38.3718 61.1088C38.3793 61.107 38.3873 61.1051 38.3937 61.1036C38.3958 61.1031 38.3977 61.1027 38.3994 61.1023C38.4073 61.1004 38.4129 61.099 38.4176 61.0978C38.4178 61.0978 38.418 61.0977 38.4182 61.0977C38.4388 61.0817 38.4478 61.0743 38.46 61.0626C38.5225 61.0024 38.5976 60.9714 38.6285 60.9588C38.6475 60.9512 38.666 60.9444 38.6787 60.9397L38.6805 60.9391C38.6959 60.9335 38.7018 60.9312 38.7053 60.9298C38.786 60.896 38.9151 60.8553 39.0389 60.8553C39.206 60.8553 39.3415 60.9895 39.3415 61.1551C39.3415 61.3207 39.206 61.4549 39.0389 61.4549C39.0389 61.4549 39.0389 61.4549 39.0387 61.455C39.0373 61.4551 39.0255 61.4559 39.0036 61.4614Z" fill="black"/>
<path fill-rule="evenodd" clip-rule="evenodd" d="M39.2075 61.329C39.2082 61.329 39.2088 61.3289 39.2095 61.3289C39.2174 61.3283 39.2238 61.3281 39.2279 61.3281C39.3951 61.3281 39.5307 61.1938 39.5307 61.0281C39.5307 60.8624 39.3951 60.7281 39.2279 60.7281C39.1682 60.7281 39.0412 60.7356 38.9374 60.7813C38.9372 60.7814 38.9369 60.7815 38.9366 60.7816C38.9224 60.7879 38.8884 60.8029 38.8512 60.8327C38.8312 60.84 38.8136 60.8474 38.7995 60.8537C38.7867 60.8594 38.7694 60.8675 38.7581 60.8728C38.7541 60.8747 38.7509 60.8762 38.7489 60.8771C38.7416 60.8804 38.7366 60.8826 38.7333 60.884C38.6849 60.8891 38.6324 60.8893 38.5598 60.8893C38.3926 60.8893 38.257 61.0236 38.257 61.1893C38.257 61.355 38.3926 61.4893 38.5598 61.4893C38.5629 61.4893 38.566 61.4893 38.5692 61.4893C38.6384 61.4894 38.7281 61.4894 38.8196 61.4781C38.9033 61.4677 38.9722 61.436 39.0049 61.4209C39.0154 61.416 39.0222 61.4128 39.0277 61.4102C39.0347 61.4069 39.0396 61.4045 39.0472 61.4012C39.0498 61.4 39.0519 61.3992 39.0535 61.3985C39.0629 61.3966 39.081 61.3926 39.0994 61.3867C39.1305 61.3766 39.1691 61.3594 39.2075 61.329ZM39.1712 61.3342C39.1712 61.3342 39.1713 61.3341 39.1717 61.3341C39.1713 61.3341 39.1712 61.3342 39.1712 61.3342ZM38.9359 60.8098C38.936 60.8098 38.9353 60.81 38.9338 60.8103C38.9351 60.81 38.9359 60.8098 38.9359 60.8098Z" fill="black"/>
<path fill-rule="evenodd" clip-rule="evenodd" d="M41.0347 59.7225C41.0789 59.7091 41.1654 59.6881 41.263 59.7095C41.3193 59.7219 41.3793 59.7522 41.4266 59.8065C41.4712 59.8578 41.4887 59.9126 41.4954 59.9506C41.5072 60.017 41.4927 60.0692 41.4891 60.0819L41.4891 60.0821C41.4799 60.1151 41.4666 60.1394 41.464 60.1441C41.4639 60.1443 41.4638 60.1445 41.4638 60.1446C41.4561 60.1586 41.4489 60.1691 41.4473 60.1714L41.4472 60.1716C41.4427 60.1782 41.4387 60.1834 41.4375 60.1849L41.4375 60.185C41.4343 60.1892 41.4311 60.1932 41.4291 60.1957C41.4245 60.2014 41.419 60.2081 41.4141 60.2141L41.4141 60.2141C41.408 60.2215 41.3919 60.2411 41.3842 60.2496C41.3118 60.3293 41.227 60.3825 41.1598 60.4191C41.1172 60.4424 41.0631 60.4681 41.0234 60.487C41.0076 60.4945 40.9941 60.5009 40.9845 60.5057L40.9844 60.5057C40.9057 60.5447 40.8045 60.5948 40.6957 60.6308C40.6959 60.6307 40.6942 60.6313 40.6886 60.6335L40.6784 60.6378C40.6744 60.6394 40.6691 60.6416 40.6636 60.6439C40.6542 60.6477 40.6413 60.6529 40.6257 60.6583C40.6054 60.6734 40.5863 60.6851 40.5683 60.6958C40.5024 60.735 40.4369 60.7623 40.3886 60.782C40.3819 60.7847 40.3756 60.7873 40.3695 60.7898C40.3268 60.8072 40.2992 60.8184 40.2722 60.8323C40.0639 60.9398 39.8272 61.0321 39.5792 61.0768C39.4914 61.0926 39.438 61.1064 39.3969 61.1268C39.2474 61.2008 39.0656 61.1408 38.9909 60.9927C38.9161 60.8445 38.9767 60.6644 39.1262 60.5903C39.2502 60.5289 39.3774 60.5035 39.4709 60.4867C39.6439 60.4555 39.8224 60.3882 39.9926 60.3004C40.0459 60.2729 40.1012 60.2505 40.1415 60.2341C40.1473 60.2318 40.1528 60.2296 40.1579 60.2275C40.2044 60.2085 40.2331 60.1956 40.2568 60.1815C40.2569 60.1815 40.2569 60.1815 40.257 60.1814C40.3086 60.1303 40.365 60.1102 40.3797 60.105L40.3801 60.1048C40.3997 60.0979 40.4172 60.0936 40.4286 60.0911C40.4297 60.0906 40.4313 60.09 40.4332 60.0892L40.4438 60.0848C40.448 60.0831 40.4534 60.0808 40.4592 60.0785C40.4706 60.0739 40.4862 60.0677 40.5042 60.0618C40.5086 60.0604 40.5129 60.0589 40.5173 60.0573C40.5435 60.0258 40.5766 59.999 40.6158 59.9796C40.6368 59.9692 40.6601 59.9588 40.6773 59.9511C40.6803 59.9498 40.6831 59.9485 40.6856 59.9474C40.7062 59.9381 40.7211 59.9312 40.7337 59.9246C40.7388 59.9219 40.7428 59.9197 40.7459 59.9178C40.7869 59.8644 40.8434 59.8134 40.9038 59.7791C40.9377 59.7597 40.9834 59.7381 41.0347 59.7225Z" fill="black"/>
<path fill-rule="evenodd" clip-rule="evenodd" d="M43.8739 58.4665C44.0086 58.4148 44.0903 58.2732 44.061 58.1281C44.0282 57.9657 43.8688 57.8604 43.7049 57.8928C43.6066 57.9123 43.5431 57.9607 43.5151 57.9829C43.514 57.9837 43.513 57.9845 43.5121 57.9852C43.4605 58.0068 43.416 58.0293 43.375 58.0507C43.2749 58.1029 43.2155 58.1765 43.1791 58.2305C43.1639 58.2532 43.1501 58.2764 43.1412 58.2915C43.1403 58.2931 43.1394 58.2945 43.1386 58.2959C43.1282 58.3135 43.1225 58.3228 43.1172 58.3304C43.1145 58.3343 43.1039 58.3471 43.056 58.3784C43.0447 58.3858 43.0329 58.3933 43.0188 58.4022L43.0172 58.4032C43.0041 58.4115 42.989 58.421 42.9738 58.431C42.9518 58.4453 42.9265 58.4624 42.9002 58.4825C42.895 58.4847 42.8894 58.4872 42.8837 58.49C42.8595 58.5017 42.8279 58.5201 42.7963 58.5491C42.796 58.5495 42.7953 58.5501 42.7944 58.5509C42.7841 58.56 42.7408 58.598 42.7035 58.6496C42.6716 58.6721 42.6502 58.694 42.6404 58.704L42.6403 58.7042C42.6395 58.705 42.6386 58.7059 42.6377 58.7068C42.6198 58.7178 42.592 58.7298 42.5342 58.7517C42.396 58.8041 42.2956 58.8887 42.2307 58.9434C42.2227 58.9502 42.2152 58.9565 42.2083 58.9622C42.1602 59.0019 42.0684 59.0505 42.0015 59.0709C41.9434 59.0886 41.9005 59.1157 41.8697 59.1398C41.8578 59.1491 41.8475 59.1582 41.8431 59.1621C41.8429 59.1623 41.8426 59.1626 41.8424 59.1628C41.8408 59.1642 41.8396 59.1652 41.8388 59.1659C41.8371 59.167 41.8329 59.1696 41.825 59.1744C41.8241 59.1749 41.8232 59.1755 41.8221 59.1761C41.8079 59.1846 41.7771 59.2031 41.7469 59.227C41.7429 59.2301 41.7365 59.2346 41.7188 59.2435C41.7107 59.2477 41.7027 59.2515 41.6915 59.2569C41.6889 59.2581 41.686 59.2595 41.683 59.261C41.6712 59.2666 41.6568 59.2736 41.6412 59.2816C41.6393 59.2823 41.6361 59.2833 41.6304 59.2854C41.6212 59.2886 41.6038 59.2947 41.5847 59.3034C41.5694 59.3103 41.5481 59.3209 41.5249 59.3366C41.5245 59.3368 41.5241 59.337 41.5237 59.3371C41.5229 59.3375 41.5218 59.3379 41.5204 59.3385C41.5136 59.3414 41.5007 59.3467 41.4893 59.3519C41.4742 59.3587 41.4527 59.3691 41.4293 59.3836C41.3943 59.4053 41.3638 59.4293 41.3467 59.4428C41.3456 59.4436 41.3446 59.4444 41.3436 59.4452C41.3228 59.4616 41.3173 59.4654 41.3141 59.4674C41.2751 59.4914 41.2322 59.5099 41.1654 59.5388C41.1585 59.5418 41.1514 59.5449 41.1439 59.5481C41.1423 59.5485 41.1369 59.5501 41.125 59.553C41.1235 59.5534 41.1219 59.5538 41.12 59.5543C41.1016 59.5587 41.0627 59.5681 41.0241 59.5829C40.9241 59.6212 40.8607 59.6929 40.8361 59.7212C40.824 59.7351 40.8116 59.7503 40.804 59.7597C40.8025 59.7616 40.8012 59.7632 40.8001 59.7646C40.7925 59.7739 40.79 59.7767 40.79 59.7768C40.79 59.7768 40.7901 59.7766 40.7904 59.7763C40.674 59.8952 40.6768 60.085 40.7968 60.2004C40.9167 60.3157 41.1083 60.3129 41.2248 60.1941C41.2354 60.1832 41.2445 60.1729 41.2519 60.1643C41.2593 60.1558 41.2661 60.1475 41.2714 60.141C41.2739 60.1379 41.2758 60.1356 41.2775 60.1335C41.3003 60.1278 41.3411 60.1173 41.3838 60.0988C41.391 60.0956 41.3987 60.0923 41.4068 60.0889C41.4682 60.0625 41.5541 60.0257 41.6333 59.977C41.6691 59.955 41.7 59.9307 41.7173 59.917C41.7183 59.9163 41.7191 59.9156 41.72 59.9149C41.7338 59.9041 41.741 59.8986 41.7452 59.8955C41.7466 59.8949 41.7484 59.8942 41.7507 59.8932C41.7532 59.8922 41.7564 59.8908 41.7607 59.889C41.7708 59.8848 41.7881 59.8774 41.8067 59.868C41.8176 59.8624 41.8307 59.8554 41.8448 59.8465C41.8486 59.8451 41.8533 59.8435 41.8582 59.8417C41.8706 59.8371 41.8916 59.829 41.9148 59.8167C41.9165 59.8158 41.9203 59.814 41.9259 59.8114C41.9591 59.7958 42.0538 59.7513 42.1232 59.6968C42.1241 59.6962 42.1283 59.6935 42.1393 59.687C42.14 59.6865 42.1408 59.686 42.1417 59.6855C42.1565 59.6766 42.188 59.6577 42.2193 59.6325C42.2203 59.6316 42.2214 59.6308 42.2224 59.63C42.3497 59.5849 42.4928 59.508 42.5958 59.4229C42.6014 59.4183 42.6067 59.414 42.6117 59.4098C42.6916 59.3438 42.713 59.3261 42.7503 59.312C42.7524 59.3112 42.7546 59.3104 42.7568 59.3095C42.8171 59.2867 42.9157 59.2494 43.0063 59.1833C43.0284 59.1672 43.0452 59.1515 43.0561 59.1408C43.058 59.1389 43.0598 59.1371 43.0615 59.1354C43.1172 59.1009 43.1576 59.0576 43.1871 59.0135C43.2077 59.0032 43.2332 58.9881 43.2592 58.966C43.2783 58.9497 43.2953 58.939 43.326 58.9196C43.3425 58.9092 43.3629 58.8964 43.3897 58.8788C43.4512 58.8386 43.5443 58.7736 43.616 58.6702C43.6349 58.643 43.6504 58.6168 43.6607 58.5995C43.6691 58.5853 43.6741 58.5769 43.6781 58.5705C43.7088 58.5548 43.733 58.5434 43.7587 58.5332C43.7984 58.5175 43.8295 58.4984 43.8524 58.4823C43.8608 58.4765 43.8681 58.471 43.8739 58.4665ZM41.7401 59.8978C41.7401 59.8978 41.7402 59.8977 41.7404 59.8976ZM43.8926 58.4517C43.893 58.4514 43.8932 58.4513 43.8932 58.4513C43.8932 58.4513 43.893 58.4514 43.8926 58.4517Z" fill="black"/>
<path fill-rule="evenodd" clip-rule="evenodd" d="M44.1348 58.0974C44.1348 58.0972 44.1348 58.0969 44.1349 58.0966C44.1937 57.9655 44.1505 57.8077 44.026 57.7254C43.8868 57.6335 43.6988 57.6708 43.6061 57.8086C43.5633 57.8722 43.5483 57.9426 43.5435 57.9657C43.5423 57.9711 43.5412 57.9766 43.5402 57.9822C43.5374 57.9856 43.5345 57.9892 43.5316 57.993C43.5238 58.0031 43.5133 58.0174 43.5028 58.0351C43.418 58.1779 43.4662 58.3618 43.6103 58.4458C43.7486 58.5264 43.925 58.4858 44.014 58.3562C44.0148 58.3553 44.0156 58.3544 44.0167 58.3532C44.0177 58.352 44.0189 58.3507 44.0204 58.349C44.0245 58.3444 44.0306 58.3375 44.037 58.3298C44.0489 58.3157 44.0697 58.2899 44.0884 58.2565C44.1067 58.2237 44.1315 58.1686 44.1348 58.0974ZM44.0096 58.3613C44.0095 58.3613 44.0099 58.3609 44.0108 58.3599C44.01 58.3608 44.0096 58.3613 44.0096 58.3613Z" fill="black"/>
<path d="M17.4007 32.405C17.8042 28.4073 27.0043 18.2491 38.3811 18.1133C49.758 17.9775 54.2173 24.4096 59.3616 32.9047C59.4761 33.0501 59.7066 33.0377 59.9668 33.0047C60.7541 32.9047 60.7872 32.4145 60.7541 32.3208C56.6381 20.6773 48.1652 15.7282 39.995 15.0806C31.8247 14.433 21.437 18.4838 16.218 31.8656C16.1625 32.0839 16.1902 32.2476 16.3012 32.3568C16.7955 32.6049 17.4007 32.6049 17.4007 32.405Z" fill="black"/>
<defs>
<filter id="filter0_d_48_32" x="0" y="0" width="84.7867" height="84.7867" filterUnits="userSpaceOnUse" color-interpolation-filters="sRGB">
<feFlood flood-opacity="0" result="BackgroundImageFix"/>
<feColorMatrix in="SourceAlpha" type="matrix" values="0 0 0 0 0 0 0 0 0 0 0 0 0 0 0 0 0 0 127 0" result="hardAlpha"/>
<feOffset dx="4" dy="4"/>
<feGaussianBlur stdDeviation="4"/>
<feComposite in2="hardAlpha" operator="out"/>
<feColorMatrix type="matrix" values="0 0 0 0 0 0 0 0 0 0 0 0 0 0 0 0 0 0 0.25 0"/>
<feBlend mode="normal" in2="BackgroundImageFix" result="effect1_dropShadow_48_32"/>
<feBlend mode="normal" in="SourceGraphic" in2="effect1_dropShadow_48_32" result="shape"/>
</filter>
</defs>
</svg>
