<svg width="110" height="110" viewBox="0 0 110 110" fill="none" xmlns="http://www.w3.org/2000/svg">
<g filter="url(#filter0_d_54_44)">
<path d="M4 51C4 25.0426 25.0426 4 51 4C76.9574 4 98 25.0426 98 51C98 76.9574 76.9574 98 51 98C25.0426 98 4 76.9574 4 51Z" fill="white"/>
</g>
<path d="M78.2535 56.7401C76.5002 53.6605 75.6565 52.3296 72.624 50.4175C70.1429 48.8531 66.192 47.0044 63.9913 47.6017C63.3844 47.7355 62.8449 47.9364 62.3729 48.2042C61.9008 48.472 61.5299 48.7733 61.2602 49.108C60.9905 49.4427 60.9567 49.7105 61.159 49.9114C71.3415 52.5893 76.4328 58.7821 76.4328 68.4896C76.4328 70.7659 75.9945 72.8748 75.1178 74.8163C74.3086 76.7578 73.0611 78.465 71.3753 79.9378C69.7568 81.3438 67.7338 82.4819 65.3062 83.3522C62.946 84.1556 60.2487 84.5573 57.2142 84.5573C52.1566 84.5573 47.3351 83.7204 42.7496 82.0467C38.1641 80.373 33.7476 78.4269 30.3085 75.8829C32.4664 75.8159 34.9948 75.1845 37.0852 74.3142C39.1756 73.4438 41.1987 71.8705 43.1542 69.5943C45.1098 67.318 46.998 64.2049 48.8187 60.2549C50.7068 56.238 52.5275 51.0495 54.2808 44.6894C55.4946 40.003 56.9781 35.9861 58.7314 32.6386C60.4847 29.2912 62.474 26.4794 64.6993 24.2031C67.0107 22.1061 70.9813 21.0225 71.6604 20.8431C73.728 20.2968 74.1403 20.2816 74.6916 20.0085C75.3808 19.872 75.9322 17.8233 75.243 17.5501C75.243 17.5501 74.6916 17.277 73.8646 17.5501C70.4929 18.3535 68.2396 19.818 65.812 21.4917C65.0428 22.022 63.2509 23.3044 62.474 24.0023C59.6418 26.5463 57.2142 29.6929 55.1912 33.442C53.2356 37.1911 51.5497 41.5428 50.1336 46.497C48.7175 51.5851 47.3688 55.8029 46.0876 59.1503C44.8738 62.4977 44.6425 63.5288 41.61 67.0797C38.7595 70.4176 36.0964 71.617 31.4099 72.133C26.7233 72.6489 26.7233 72.5065 21.9126 71.7032C21.406 71.6186 21.3476 71.6338 20.6988 72.5065C20.4966 72.863 20.2942 73.0421 20.4965 73.3099C25.2169 77.2599 30.3755 80.373 35.9725 82.6493C41.637 84.9255 47.942 86.0636 54.8877 86.0636C63.5192 86.0636 69.9929 84.2895 74.3086 80.7412C78.6918 77.1929 80.8834 72.3726 80.8834 66.2803C80.8834 62.9998 80.0068 59.8198 78.2535 56.7401Z" fill="black"/>
<path d="M78.2536 56.7402C76.5003 53.6606 75.6566 52.3297 72.6241 50.4177C70.143 48.8533 66.1921 47.0045 63.9914 47.6018C63.3845 47.7357 62.845 47.9365 62.373 48.2043C61.9009 48.4721 61.5301 48.7734 61.2603 49.1081C60.9906 49.4429 60.9569 49.7106 61.1592 49.9115C71.3417 52.5894 76.4329 58.7822 76.4329 68.4897C76.4329 70.766 75.9946 72.8749 75.1179 74.8164C74.3087 76.7579 73.0612 78.4651 71.3754 79.9379C69.757 81.3439 67.734 82.482 65.3063 83.3523C62.9462 84.1557 60.2488 84.5574 57.2143 84.5574C52.1568 84.5574 47.3352 83.7205 42.7498 82.0468C38.1643 80.3731 34.5816 78.0682 30.5842 76.0196L21.9127 71.7033C21.4062 71.6187 21.3478 71.6339 20.6989 72.5067C20.4967 72.8631 20.2943 73.0422 20.4966 73.31C25.217 77.26 30.3757 80.3731 35.9727 82.6494C41.6371 84.9256 47.9422 86.0637 54.8878 86.0637C63.5193 86.0637 69.993 84.2896 74.3087 80.7413C78.6919 77.1931 80.8835 72.3727 80.8835 66.2804C80.8835 62.9999 80.0069 59.8199 78.2536 56.7402Z" fill="black"/>
<path fill-rule="evenodd" clip-rule="evenodd" d="M23.8287 72.5425L25.1841 73.2712L35.3361 79.3881C38.2678 80.834 41.4219 81.6834 44.067 82.103C45.3901 82.3129 46.5839 82.415 47.5567 82.4308C48.5335 82.4467 49.2756 82.3753 49.7021 82.2453C50.5842 81.9764 52.251 81.2282 53.947 80.2732C55.6443 79.3174 57.1505 78.0969 58.2886 77.186L58.7709 76.7763C58.7374 76.8048 61.4437 73.965 61.5968 73.8187C61.7499 73.6725 62.1143 74.6382 61.5968 75.7308C60.9076 77.186 59.755 79.2817 60.3562 80.7841C62.0103 83.1059 60.8197 85.2923 61.1833 84.4717C60.4945 85.3193 57.7944 85.741 55.6729 85.7902C53.5702 85.839 52.1809 85.8464 51.28 85.8298C50.8296 85.8216 50.4998 85.8073 50.2631 85.7891C50.0304 85.7712 49.877 85.7489 49.7868 85.7203C49.7633 85.7129 49.7393 85.7036 49.7175 85.6913C49.6974 85.6799 49.6674 85.6596 49.6464 85.6248C49.6211 85.5831 49.6165 85.533 49.6343 85.4874C49.649 85.4496 49.6749 85.4253 49.691 85.4123C49.7119 85.3955 49.7364 85.3821 49.7599 85.3714L35.7649 81.4095L22.6542 73.4785L22.7978 73.2453L35.8766 81.157L50.3318 85.2492L50.3152 85.5154L50.3134 85.5157L50.3076 85.5167C50.3053 85.517 50.3027 85.5174 50.2996 85.518C50.5277 85.535 50.8471 85.5487 51.2851 85.5567C52.1803 85.5731 53.5651 85.5659 55.6665 85.5171C57.7491 85.4688 58.924 84.921 59.5403 84.1626C60.1572 83.4035 60.2432 82.3983 60.0653 81.3697C59.8878 80.3428 59.4509 79.3166 59.0552 78.5434C58.8578 78.1577 58.6716 77.8367 58.5349 77.6124C58.4852 77.5309 58.4421 77.4621 58.4073 77.4078C57.3884 78.4738 55.7189 79.5896 54.0832 80.5106C52.3795 81.47 50.6929 82.229 49.7831 82.5064C49.3136 82.6495 48.5357 82.7199 47.5521 82.7039C46.5645 82.6879 45.3576 82.5844 44.0234 82.3727C41.3556 81.9495 38.1713 81.0924 35.208 79.63L35.2028 79.6275L24.9545 73.4526L23.8287 72.5425Z" fill="black"/>
<path fill-rule="evenodd" clip-rule="evenodd" d="M52.5887 81.894C52.628 81.8962 52.6519 81.8974 52.6733 81.8974C52.8012 81.8974 52.9396 81.9074 53.0575 81.916C53.1106 81.9198 53.1595 81.9233 53.2014 81.9255C53.3708 81.9344 53.5213 81.9805 53.6327 82.0176C53.6668 82.029 53.6967 82.0393 53.7237 82.0485C53.7977 82.0739 53.8501 82.092 53.9085 82.1051C53.9965 82.1249 54.0822 82.1371 54.171 82.1447C54.1748 82.1428 54.1787 82.1409 54.1827 82.1391C54.3107 82.0806 54.4533 82.0923 54.5663 82.1583C54.579 82.1584 54.5919 82.1585 54.605 82.1586C54.64 82.1589 54.6762 82.1593 54.7137 82.1597C54.7199 82.1598 54.7271 82.1598 54.7347 82.1599C54.7543 82.1601 54.7766 82.1602 54.7924 82.1607C54.8036 82.161 54.8257 82.1618 54.85 82.1647C54.8621 82.1662 54.8842 82.1692 54.9105 82.1759C54.9297 82.1809 54.9894 82.1968 55.0521 82.2415C55.0583 82.2459 55.0647 82.2508 55.0712 82.2561C55.085 82.2564 55.0991 82.2568 55.1134 82.2571C55.272 82.2614 55.4464 82.2701 55.6279 82.2993C55.7001 82.3109 55.7809 82.3244 55.8515 82.3441C55.9214 82.3636 56.0311 82.4017 56.1258 82.4936C56.2295 82.5942 56.2683 82.7121 56.2842 82.8008C56.2981 82.8789 56.2986 82.9613 56.2986 83.021C56.2986 83.1591 56.2494 83.2751 56.2161 83.3422C56.1807 83.4138 56.1386 83.4776 56.1146 83.514L56.1136 83.5156C56.0068 83.6774 55.8422 83.7332 55.7549 83.7548C55.6571 83.7789 55.5582 83.7837 55.4827 83.7839C55.4038 83.784 55.3274 83.7788 55.2691 83.7743C55.2444 83.7724 55.2251 83.7708 55.2097 83.7695C55.1816 83.7672 55.1665 83.766 55.1553 83.7657C54.9276 83.7597 54.65 83.6953 54.4403 83.5175C54.3297 83.4237 54.2352 83.2948 54.1913 83.1303C54.1768 83.0758 54.1687 83.0209 54.1665 82.966C54.0242 82.9562 53.8763 82.9382 53.7252 82.9042C53.6176 82.88 53.5063 82.8415 53.4238 82.813C53.4036 82.8061 53.3851 82.7997 53.3688 82.7942C53.2701 82.7613 53.2088 82.7465 53.158 82.7438C53.0784 82.7397 53.0125 82.7348 52.9524 82.7303C52.8556 82.723 52.7735 82.7169 52.6733 82.7169C52.6271 82.7169 52.577 82.7141 52.5396 82.7121C52.5336 82.7117 52.5279 82.7114 52.5226 82.7111C52.4779 82.7088 52.4453 82.7076 52.4172 82.7084C52.4067 82.7086 52.3983 82.7092 52.3918 82.7098C52.3108 82.7683 52.2276 82.797 52.1631 82.8123C52.0936 82.8289 52.0274 82.8339 51.9897 82.8366C51.9789 82.8374 51.9698 82.838 51.9621 82.8386C51.9434 82.8399 51.9323 82.8407 51.9236 82.8416C51.8211 82.8918 51.7224 82.9114 51.6711 82.9216C51.669 82.922 51.667 82.9224 51.6651 82.9228C51.6129 82.9332 51.5988 82.9371 51.5975 82.9372C51.3937 83.0363 51.1471 82.9541 51.0455 82.7526C50.9433 82.5502 51.0261 82.3041 51.2304 82.2029C51.333 82.1521 51.44 82.1314 51.4898 82.1218C51.4943 82.1209 51.4983 82.1202 51.5018 82.1195C51.5395 82.1119 51.5536 82.1079 51.5568 82.107C51.6449 82.0594 51.7308 82.0414 51.7887 82.0327C51.8362 82.0256 51.8874 82.0222 51.9166 82.0202C51.9215 82.0199 51.9258 82.0196 51.9294 82.0193C51.9352 82.0189 51.9402 82.0185 51.9446 82.0181C52.1077 81.9084 52.2872 81.8922 52.3939 81.8892C52.4587 81.8874 52.5208 81.8904 52.567 81.8929C52.5747 81.8933 52.5819 81.8937 52.5887 81.894ZM51.9089 82.8436C51.9089 82.8435 51.9094 82.8434 51.9105 82.8432C51.9095 82.8435 51.9089 82.8436 51.9089 82.8436Z" fill="black"/>
<path fill-rule="evenodd" clip-rule="evenodd" d="M51.7254 82.874C51.9241 82.7705 52.0036 82.528 51.9027 82.3281C51.8006 82.1257 51.5522 82.0437 51.3479 82.1449C51.2962 82.1705 51.2436 82.1881 51.1612 82.2157C51.1408 82.2224 51.1187 82.2298 51.0943 82.2381C50.9861 82.2748 50.8381 82.3281 50.6965 82.4241C50.6737 82.4396 50.6435 82.4604 50.6129 82.4851C50.4035 82.5024 50.2091 82.5646 50.0678 82.613C50.0162 82.6307 49.9705 82.6544 49.9437 82.6689C49.9225 82.6802 49.8981 82.6941 49.8801 82.7043C49.8746 82.7075 49.8696 82.7103 49.8656 82.7126C49.8596 82.7159 49.8544 82.7188 49.85 82.7212C49.5064 82.7583 49.1725 82.8061 48.8344 82.8635C48.7313 82.881 48.6302 82.8883 48.5187 82.8883H47.2983C47.2367 82.8883 47.1976 82.8837 47.1381 82.8706C47.1381 82.8706 47.1381 82.8706 47.1381 82.8706C47.1379 82.8705 47.1361 82.8701 47.1323 82.8689C47.128 82.8676 47.1222 82.8657 47.1139 82.8626C47.1001 82.8575 47.0925 82.8545 47.0825 82.8506C47.0732 82.8469 47.062 82.8424 47.0418 82.8348C46.9862 82.8136 46.874 82.7718 46.7396 82.7718C46.6418 82.7718 46.5428 82.7655 46.4282 82.7581L46.4225 82.7577C46.3137 82.7507 46.19 82.7427 46.0633 82.7427C46.0328 82.7427 45.9947 82.7353 45.8989 82.7114C45.8949 82.7104 45.8906 82.7093 45.8863 82.7082C45.8064 82.6881 45.6756 82.6552 45.5339 82.6552H45.0046C44.9488 82.6552 44.8874 82.6602 44.8423 82.664C44.8362 82.6645 44.8301 82.665 44.8242 82.6655C44.7804 82.6691 44.7427 82.6722 44.7055 82.674C44.6736 82.6755 44.65 82.6755 44.6334 82.6748C44.6249 82.6691 44.6144 82.6619 44.6014 82.6528C44.5963 82.6493 44.5906 82.6454 44.5845 82.641C44.5576 82.6221 44.5214 82.5967 44.4858 82.5739C44.4049 82.5217 44.251 82.4299 44.0566 82.4225C43.9311 82.4177 43.7955 82.4193 43.6741 82.4208C43.6195 82.4215 43.5678 82.4222 43.5212 82.4222C43.4451 82.4222 43.3498 82.4319 43.2766 82.4393C43.2622 82.4408 43.2486 82.4422 43.2362 82.4434C43.1585 82.451 43.0937 82.4557 43.0396 82.4554C42.9809 82.2998 42.8296 82.1891 42.6521 82.1891C42.4237 82.1891 42.2386 82.3725 42.2386 82.5988C42.2386 82.8221 42.3356 83.0202 42.5226 83.1435C42.6778 83.2458 42.8532 83.2676 42.9702 83.2732C43.0956 83.2791 43.2225 83.2681 43.317 83.2589C43.3408 83.2566 43.362 83.2545 43.381 83.2526C43.4513 83.2456 43.4914 83.2416 43.5212 83.2416C43.5907 83.2416 43.6539 83.2408 43.7138 83.24C43.8137 83.2387 43.9046 83.2375 44.0007 83.2405C44.008 83.2443 44.0192 83.2507 44.0353 83.261C44.0556 83.2741 44.0744 83.2873 44.0996 83.305C44.1076 83.3105 44.1161 83.3165 44.1256 83.3231C44.1594 83.3467 44.2075 83.3798 44.2598 83.4086C44.3616 83.4646 44.4662 83.4821 44.5362 83.4891C44.6111 83.4966 44.6849 83.4953 44.7451 83.4925C44.7982 83.49 44.8516 83.4855 44.894 83.482C44.8998 83.4815 44.9054 83.481 44.9108 83.4806C44.9619 83.4764 44.9889 83.4747 45.0046 83.4747H45.5339C45.5631 83.4747 45.6 83.4818 45.6967 83.506C45.7004 83.5069 45.7043 83.5079 45.7084 83.5089C45.7889 83.5291 45.9202 83.5621 46.0633 83.5621C46.1608 83.5621 46.2596 83.5684 46.3742 83.5758L46.3796 83.5762C46.4833 83.5829 46.6006 83.5905 46.7213 83.5912C46.7263 83.5928 46.7342 83.5955 46.7454 83.5998C46.7536 83.6029 46.7615 83.606 46.7714 83.6099C46.7741 83.611 46.777 83.6121 46.78 83.6133C46.7932 83.6184 46.8094 83.6247 46.8266 83.631C46.8606 83.6435 46.9063 83.659 46.9587 83.6705C47.0731 83.6957 47.1724 83.7078 47.2983 83.7078H48.5187C48.6689 83.7078 48.8175 83.6977 48.9741 83.6711C49.314 83.6134 49.6465 83.5664 49.9882 83.5307C50.075 83.5217 50.1457 83.4902 50.1759 83.4763C50.2139 83.4587 50.25 83.4387 50.2745 83.4248C50.2847 83.4191 50.2932 83.4142 50.3007 83.41C50.3153 83.4017 50.3259 83.3957 50.3376 83.3894C50.3419 83.3871 50.3451 83.3854 50.3472 83.3844C50.5041 83.3309 50.6251 83.2999 50.7225 83.2999C50.8109 83.2999 50.8923 83.29 50.9487 83.2832L50.9558 83.2823C51.0191 83.2746 51.0553 83.2707 51.0901 83.2707C51.1622 83.2707 51.2386 83.2516 51.2654 83.2449L51.2665 83.2446C51.3102 83.2337 51.3618 83.2186 51.4086 83.2013C51.4309 83.1931 51.462 83.1808 51.4938 83.1643C51.5093 83.1563 51.5342 83.1426 51.5612 83.1227C51.5795 83.1092 51.6424 83.0622 51.6872 82.9774C51.7014 82.9506 51.716 82.9157 51.7254 82.874ZM51.2682 83.1833C51.2748 83.1833 51.2737 83.1837 51.2671 83.1833H51.2682Z" fill="black"/>
<path fill-rule="evenodd" clip-rule="evenodd" d="M49.2279 84.1809C48.8442 84.2191 48.4797 84.1765 48.1537 84.1384C48.0832 84.1302 48.0145 84.1221 47.9478 84.1152C47.8081 84.1006 47.667 84.0893 47.5198 84.0774L47.5188 84.0774C47.3729 84.0656 47.2211 84.0534 47.0686 84.0374C46.9826 84.0284 46.8996 84.0123 46.8378 84.0002C46.8317 83.999 46.8258 83.9979 46.8202 83.9968C46.7488 83.983 46.7067 83.976 46.6723 83.9739C46.6558 83.973 46.6465 83.9736 46.6421 83.9741C46.6399 83.9759 46.6364 83.9791 46.6315 83.9843C46.4764 84.1504 46.2148 84.1605 46.0472 84.0068C45.8795 83.8532 45.8693 83.594 46.0244 83.4278C46.2427 83.194 46.4995 83.1429 46.7214 83.1559C46.8183 83.1617 46.9114 83.1795 46.9785 83.1925C46.9824 83.1933 46.9862 83.194 46.99 83.1947C47.0593 83.2081 47.1077 83.2175 47.1557 83.2225C47.2964 83.2373 47.4382 83.2487 47.5856 83.2606L47.5913 83.261C47.7352 83.2726 47.8847 83.2846 48.0343 83.3002C48.1185 83.309 48.1986 83.3181 48.2754 83.3267C48.6843 83.373 48.9994 83.4087 49.3446 83.3347C49.6108 83.2777 49.8756 83.1963 50.1606 83.1079L50.1824 83.1011C50.4552 83.0164 50.7473 82.9258 51.0475 82.8594C51.1567 82.8353 51.2728 82.8153 51.3772 82.7973C51.409 82.7919 51.4397 82.7866 51.4688 82.7815C51.5235 82.7718 51.5751 82.7621 51.6239 82.7519C51.4983 82.6816 51.4134 82.5481 51.4134 82.3949C51.4134 82.1686 51.5986 81.9852 51.827 81.9852H54.1789C54.2049 81.9788 54.2296 81.9732 54.2525 81.9681C54.2724 81.9636 54.2909 81.9595 54.3082 81.9557C54.3815 81.9395 54.4344 81.9279 54.4875 81.911C54.5196 81.9007 54.5728 81.8857 54.6341 81.8819C54.6636 81.88 54.7203 81.8788 54.7866 81.8973C54.8295 81.9092 54.8927 81.9345 54.9518 81.9852H55.6237C55.6528 81.9852 55.6897 81.9828 55.7498 81.979L55.7673 81.9779C55.8304 81.9738 55.9112 81.969 55.9943 81.9697C56.1353 81.971 56.4019 81.9855 56.6068 82.1614C56.6944 82.2366 56.7474 82.329 56.7778 82.3897C56.8113 82.4565 56.8373 82.5263 56.8571 82.5856C56.8773 82.6459 56.8946 82.7057 56.9082 82.7533L56.9115 82.7649C56.9246 82.8107 56.9325 82.8384 56.939 82.8578C57.0026 83.0469 57.0289 83.3136 56.8326 83.5297C56.6716 83.7068 56.4409 83.7488 56.3026 83.765C56.2687 83.7689 56.234 83.7743 56.1985 83.7809C56.2034 83.7884 56.2082 83.796 56.2128 83.8039C56.2504 83.8677 56.3125 83.9738 56.338 84.1044C56.3671 84.2527 56.3428 84.3889 56.2946 84.515C56.2215 84.7059 56.0689 84.8177 55.9598 84.8795C55.8439 84.9451 55.7151 84.9893 55.6035 85.0203C55.4203 85.0711 55.2206 85.1023 55.1051 85.1204C55.0817 85.124 55.0618 85.1271 55.0461 85.1298C55.0461 85.1298 55.044 85.1302 55.0389 85.1312C55.0331 85.1325 55.0255 85.1342 55.0156 85.1365C55.003 85.1395 54.9928 85.1419 54.9813 85.1447C54.9702 85.1473 54.9579 85.1503 54.941 85.1543C54.8835 85.1679 54.8065 85.1853 54.7265 85.1975C54.6507 85.2091 54.5478 85.2201 54.4434 85.2092C54.3516 85.1997 54.1607 85.1631 54.0334 84.9879C54.008 84.953 53.9826 84.9113 53.9621 84.8635C53.9549 84.8644 53.9477 84.8653 53.9405 84.8662C53.7357 84.8924 53.5166 84.9193 53.2912 84.9311C53.0853 84.9418 52.8778 84.9842 52.6524 85.0432C52.5512 85.0697 52.4501 85.0985 52.3439 85.1288C52.3316 85.1323 52.3192 85.1358 52.3067 85.1394C52.1886 85.173 52.0645 85.208 51.9379 85.2397C51.68 85.3041 51.3839 85.3763 51.0506 85.3669C51.0416 85.3666 51.0358 85.3667 51.0267 85.3668C51.0155 85.3669 50.9993 85.367 50.966 85.3667C50.9223 85.3662 50.8634 85.3647 50.8015 85.3581C50.7435 85.352 50.6607 85.3393 50.5776 85.3071C50.5019 85.2777 50.3556 85.2047 50.2794 85.0347C50.2456 84.9594 50.2058 84.8367 50.2369 84.6944C50.2412 84.6749 50.2465 84.6562 50.2528 84.6384C50.0916 84.6441 49.9299 84.6443 49.7679 84.6384C49.708 84.6362 49.6028 84.6315 49.5113 84.5975C49.4835 84.5872 49.4329 84.5657 49.3812 84.5233C49.3266 84.4783 49.2521 84.393 49.2322 84.2626C49.2279 84.2339 49.2267 84.2066 49.2279 84.1809ZM50.8167 85.1168C50.817 85.1168 50.8173 85.1167 50.8176 85.1167C50.8137 85.1175 50.813 85.1174 50.8167 85.1168ZM55.5253 83.1123C55.5246 83.1121 55.5238 83.1119 55.5231 83.1117C55.4118 83.081 55.3098 83.0935 55.2423 83.1074C55.1369 83.1291 55.0507 83.167 54.9798 83.2133C54.9781 83.1946 54.9751 83.1753 54.9706 83.1555C54.947 83.0521 54.89 82.9728 54.8275 82.9186C54.779 82.8765 54.7277 82.849 54.6801 82.8309C54.6946 82.8224 54.7091 82.8137 54.7234 82.8046H55.6237C55.6817 82.8046 55.7477 82.8003 55.8004 82.7969C55.8073 82.7965 55.814 82.796 55.8204 82.7956C55.8832 82.7916 55.9371 82.7887 55.9869 82.7892C56.0145 82.7894 56.0365 82.7907 56.0537 82.7925C56.0594 82.8069 56.0655 82.8239 56.0722 82.8438C56.0849 82.8816 56.0967 82.9218 56.109 82.9647C55.9056 82.9975 55.7013 83.0569 55.5253 83.1123Z" fill="black"/>
<path fill-rule="evenodd" clip-rule="evenodd" d="M58.692 78.3278C58.7965 78.2064 58.8239 78.0301 58.7473 77.8784C58.6452 77.676 58.3968 77.594 58.1925 77.6952C58.0468 77.7674 57.985 77.8892 57.9651 77.9306C57.9584 77.9444 57.9515 77.9603 57.9476 77.9696C57.9474 77.9698 57.9473 77.97 57.9471 77.9702C57.9426 77.9766 57.9365 77.9846 57.9289 77.9942C57.9169 78.0092 57.9036 78.0248 57.8908 78.0391C57.8879 78.0415 57.8844 78.0444 57.8807 78.0476C57.86 78.0651 57.8194 78.1008 57.7811 78.1564C57.7699 78.1672 57.7605 78.1771 57.7528 78.1855C57.7506 78.188 57.7484 78.1904 57.7463 78.1927C57.7201 78.2098 57.699 78.2271 57.6827 78.2419C57.6799 78.2445 57.6771 78.247 57.6745 78.2495C57.6508 78.262 57.6328 78.2726 57.625 78.2773C57.6232 78.2783 57.622 78.279 57.6213 78.2794C57.5478 78.321 57.496 78.3655 57.4603 78.3968C57.4144 78.4373 57.3835 78.4759 57.3634 78.5028C57.3573 78.511 57.3447 78.5283 57.3446 78.5285C57.3445 78.5286 57.3444 78.5287 57.3444 78.5287C57.3411 78.5315 57.336 78.5356 57.3281 78.5416C57.3202 78.5477 57.3144 78.552 57.3071 78.5574C57.3016 78.5615 57.2951 78.5663 57.2862 78.573C57.2698 78.5854 57.2477 78.6023 57.225 78.6215C57.2113 78.6332 57.1991 78.6448 57.1884 78.6558C57.1864 78.6578 57.1845 78.6598 57.1827 78.6618C57.1807 78.6629 57.1789 78.6639 57.1772 78.6649C57.1722 78.6677 57.1693 78.6692 57.1681 78.6698C57.1679 78.6699 57.1677 78.67 57.1674 78.6701L57.1611 78.6724C57.1562 78.6741 57.1536 78.675 57.1502 78.6762C57.147 78.6773 57.143 78.6787 57.1356 78.6813C57.1156 78.6883 57.0772 78.7018 57.0362 78.7222C56.9863 78.7469 56.9345 78.7832 56.8897 78.8355C56.8663 78.8628 56.8491 78.8896 56.8366 78.9124C56.8199 78.9283 56.797 78.9476 56.7646 78.9724C56.7537 78.9809 56.7365 78.9936 56.7163 79.0086C56.6729 79.0408 56.6155 79.0834 56.5751 79.1161C56.5712 79.1192 56.5633 79.1252 56.5526 79.1334C56.5102 79.1657 56.4233 79.2318 56.3635 79.2893C56.3598 79.2916 56.3523 79.296 56.3393 79.3031C56.3367 79.3045 56.3323 79.3069 56.3268 79.3098C56.3123 79.3175 56.2903 79.3293 56.2745 79.3381C56.2478 79.353 56.213 79.3735 56.1767 79.3998C56.16 79.4119 56.1473 79.4191 56.1219 79.4336C56.1067 79.4423 56.0868 79.4537 56.0588 79.4702C56.0123 79.4977 55.9461 79.5386 55.8799 79.5983C55.8732 79.6008 55.8653 79.6037 55.8571 79.607C55.8447 79.6118 55.8289 79.6182 55.8116 79.6263C55.7965 79.6334 55.7778 79.6428 55.7576 79.6549C55.7561 79.6556 55.754 79.6565 55.7512 79.6577L55.7384 79.663C55.7334 79.665 55.727 79.6677 55.7202 79.6705C55.7068 79.6762 55.6887 79.6841 55.6687 79.694C55.5846 79.7357 55.4932 79.7757 55.3967 79.8167C55.3044 79.8559 55.2307 79.9077 55.185 79.9407C55.1676 79.9533 55.1542 79.9631 55.1432 79.9711C55.1182 79.9895 55.1063 79.9982 55.0911 80.0072C54.9992 80.0619 54.9285 80.132 54.8929 80.1672C54.8905 80.1695 54.8884 80.1717 54.8864 80.1737C54.8449 80.2145 54.8368 80.2202 54.8366 80.2204C54.7339 80.2819 54.619 80.3568 54.5103 80.4481C54.4991 80.4574 54.4886 80.4664 54.4795 80.4742C54.4699 80.4825 54.4623 80.489 54.4547 80.4954C54.4396 80.5083 54.43 80.516 54.4226 80.5214C54.4189 80.5242 54.4164 80.5259 54.4148 80.5269C54.408 80.529 54.4003 80.5314 54.392 80.5339C54.3086 80.5592 54.1543 80.6061 54.0131 80.7382C53.9665 80.7818 53.9357 80.8266 53.9176 80.8554C53.9157 80.8584 53.9138 80.8614 53.912 80.8645C53.9091 80.8653 53.906 80.8662 53.9027 80.8671C53.9003 80.8678 53.8976 80.8685 53.8948 80.8693C53.8777 80.874 53.8543 80.8805 53.8326 80.8872C53.7885 80.9008 53.7419 80.9128 53.6849 80.9272C53.6811 80.9282 53.6771 80.9292 53.6731 80.9302C53.6217 80.9432 53.5611 80.9585 53.5004 80.9764C53.4581 80.989 53.4186 81.0057 53.3816 81.0265C53.3453 81.0469 53.3176 81.0679 53.2991 81.0829C53.2915 81.0891 53.2848 81.0948 53.2805 81.0984C53.2773 81.1002 53.2726 81.1026 53.2659 81.1061C53.2651 81.1065 53.2642 81.107 53.2632 81.1075C53.2464 81.1163 53.213 81.1336 53.1788 81.1558C53.154 81.1719 53.1341 81.1874 53.1201 81.199C53.1128 81.205 53.1055 81.2113 53.1 81.2161C53.0772 81.2277 53.0554 81.2354 53.0194 81.2481C52.9907 81.2583 52.9531 81.2716 52.8986 81.2926C52.833 81.3179 52.7703 81.347 52.7215 81.3697C52.7179 81.3714 52.7143 81.3731 52.7108 81.3747C52.6559 81.4002 52.6165 81.418 52.5792 81.4317C52.566 81.4366 52.553 81.4402 52.5201 81.4496C52.5174 81.4504 52.5145 81.4512 52.5116 81.452C52.4781 81.4615 52.4248 81.4768 52.3675 81.5008C52.3036 81.5276 52.2663 81.5392 52.2395 81.5435C52.0861 81.5682 51.9356 81.6394 51.8607 81.6748C51.8594 81.6754 51.858 81.6761 51.8567 81.6767C51.8552 81.6772 51.8527 81.6781 51.8492 81.6793C51.849 81.6794 51.8479 81.6797 51.8461 81.6803C51.8365 81.6835 51.807 81.6932 51.7938 81.6978C51.7699 81.7062 51.7349 81.7191 51.6973 81.7376C51.6602 81.7558 51.6094 81.7849 51.5598 81.8302C51.5264 81.8606 51.4967 81.8747 51.4213 81.9105C51.3898 81.9255 51.3503 81.9442 51.2992 81.9695C51.2669 81.9855 51.2413 82.0021 51.2248 82.0133C51.2205 82.0162 51.2164 82.019 51.2128 82.0215C51.124 82.0548 51.0389 82.1024 50.9629 82.1635C50.8888 82.2231 50.8161 82.277 50.7367 82.336C50.6967 82.3657 50.655 82.3967 50.6106 82.4303C50.4853 82.5249 50.3492 82.6326 50.222 82.7586C50.1737 82.8065 50.143 82.8393 50.1183 82.8657C50.0862 82.9001 50.0643 82.9235 50.0273 82.9547C49.9711 83.002 49.9291 83.0546 49.9108 83.0776C49.9097 83.079 49.9086 83.0803 49.9077 83.0814C49.8965 83.0954 49.891 83.102 49.889 83.1044C49.8018 83.1804 49.7065 83.2478 49.6022 83.309C49.5748 83.325 49.5421 83.3435 49.5063 83.3638C49.4142 83.416 49.3011 83.48 49.2029 83.5448C49.0586 83.64 48.8947 83.7679 48.7697 83.946C48.7524 83.9707 48.6954 84.0539 48.6673 84.1504C48.6592 84.1781 48.6463 84.2304 48.6483 84.2952C48.6503 84.3598 48.6694 84.4813 48.7731 84.5846C48.8802 84.6914 49.009 84.7109 49.0855 84.7101C49.1583 84.7092 49.2169 84.691 49.2497 84.6791C49.2644 84.6738 49.2785 84.6694 49.3037 84.6617C49.3103 84.6597 49.3177 84.6575 49.326 84.6549C49.3598 84.6445 49.4101 84.6288 49.4626 84.6064C49.6187 84.5396 49.7501 84.4321 49.827 84.3679C49.9274 84.2842 49.9774 84.1633 49.974 84.0428C49.9899 84.0336 50.0063 84.0242 50.0232 84.0142C50.1701 83.9282 50.3103 83.8293 50.442 83.7137C50.4941 83.6681 50.5342 83.6176 50.5517 83.5956C50.5531 83.5939 50.5543 83.5924 50.5554 83.591C50.5633 83.5811 50.5681 83.5755 50.5704 83.5726C50.6388 83.5139 50.7173 83.4315 50.7672 83.3791C50.7842 83.3612 50.7979 83.3468 50.8068 83.3381C50.8942 83.2514 50.9952 83.1701 51.1121 83.0819C51.1448 83.0571 51.1802 83.0308 51.217 83.0035C51.3033 82.9394 51.3975 82.8694 51.484 82.7998C51.4898 82.7951 51.4989 82.79 51.5094 82.7866C51.5927 82.7601 51.6529 82.7173 51.6741 82.7023L51.6753 82.7014L51.6837 82.6954C51.6926 82.6912 51.7028 82.6865 51.7141 82.6813C51.8013 82.6411 51.9528 82.5711 52.0811 82.4665C52.0831 82.4658 52.0853 82.4651 52.0876 82.4643L52.0917 82.463C52.0987 82.4607 52.1079 82.4577 52.1167 82.4547C52.1368 82.4479 52.1711 82.436 52.2073 82.4189C52.2489 82.3993 52.2838 82.3832 52.3166 82.3703C52.3507 82.3569 52.3679 82.353 52.3718 82.3524C52.4989 82.332 52.6099 82.289 52.6898 82.2555C52.6972 82.2524 52.7084 82.2486 52.7397 82.2397C52.7426 82.2389 52.7458 82.238 52.7493 82.237C52.7767 82.2293 52.8218 82.2165 52.8672 82.1999C52.9406 82.1728 53.0088 82.1412 53.0614 82.1169L53.0641 82.1156C53.12 82.0897 53.1597 82.0713 53.1988 82.0562C53.2073 82.0529 53.2199 82.0484 53.2356 82.0429C53.3043 82.0185 53.4322 81.9731 53.5323 81.9156C53.5846 81.8855 53.6235 81.8514 53.6377 81.8389C53.6383 81.8384 53.6389 81.8379 53.6394 81.8374L53.6394 81.8374C53.6423 81.8359 53.6462 81.8338 53.6512 81.8312C53.6522 81.8307 53.6533 81.8301 53.6544 81.8295C53.6708 81.821 53.7034 81.804 53.7366 81.7828C53.7559 81.7704 53.7724 81.7583 53.7857 81.7479C53.8151 81.74 53.8463 81.7321 53.8816 81.7232L53.8893 81.7212C53.9451 81.7071 54.0111 81.6904 54.0783 81.6696C54.0878 81.6667 54.0981 81.6638 54.1156 81.659C54.119 81.658 54.1227 81.657 54.1267 81.6559C54.1481 81.6499 54.1772 81.6417 54.2077 81.6318C54.2621 81.614 54.359 81.5791 54.448 81.5097C54.506 81.4643 54.5434 81.4146 54.5649 81.3827C54.5778 81.3635 54.5889 81.3445 54.5973 81.3297C54.5997 81.3288 54.6024 81.3279 54.6054 81.327C54.6142 81.3241 54.6238 81.3211 54.636 81.3172L54.6384 81.3164C54.6495 81.3129 54.6627 81.3087 54.6764 81.3043C54.8455 81.2495 54.9729 81.1368 55.0275 81.0885C55.0345 81.0822 55.0404 81.0771 55.045 81.0732C55.1067 81.0214 55.1804 80.972 55.2646 80.9215C55.3568 80.8663 55.4274 80.7964 55.4635 80.7607C55.4657 80.7585 55.4677 80.7565 55.4697 80.7546C55.5078 80.717 55.5171 80.7098 55.5174 80.7094C55.5528 80.6883 55.584 80.6668 55.6088 80.6491C55.6214 80.6401 55.6334 80.6313 55.6438 80.6237L55.6477 80.6208C55.6568 80.6141 55.6645 80.6084 55.6723 80.6028C55.6898 80.5902 55.7015 80.5822 55.7106 80.5766C55.7194 80.5712 55.7229 80.5697 55.7225 80.5699C55.8223 80.5275 55.9319 80.4798 56.0385 80.427L56.0383 80.4271C56.0383 80.4271 56.0401 80.4262 56.0453 80.4241L56.0567 80.4193L56.0736 80.4123C56.0934 80.404 56.129 80.3888 56.1686 80.3662C56.1697 80.3658 56.1708 80.3654 56.1721 80.3649C56.1763 80.3635 56.1824 80.3613 56.1994 80.355C56.2189 80.3477 56.2536 80.3344 56.2907 80.3149C56.3269 80.2959 56.3838 80.2617 56.4367 80.2042C56.4375 80.2035 56.4467 80.1951 56.4823 80.1741C56.4922 80.1682 56.5027 80.1622 56.5156 80.1548L56.5177 80.1536C56.5295 80.1469 56.5435 80.1388 56.5576 80.1305C56.5877 80.1128 56.6255 80.0898 56.6646 80.0614C56.6642 80.0617 56.6679 80.059 56.6808 80.0519C56.6906 80.0464 56.6972 80.0429 56.7062 80.0381C56.7135 80.0342 56.7224 80.0295 56.7359 80.0222C56.7792 79.9987 56.8637 79.9524 56.9403 79.8765C56.9615 79.8556 56.9753 79.8453 57 79.827C57.0211 79.8113 57.0503 79.7897 57.0988 79.7503C57.1302 79.7249 57.1534 79.7079 57.1822 79.6868C57.2056 79.6696 57.2327 79.6497 57.271 79.6203C57.333 79.5728 57.4108 79.5094 57.482 79.428C57.4827 79.4277 57.4835 79.4274 57.4842 79.4271C57.5475 79.4013 57.616 79.3603 57.636 79.3483C57.6386 79.3468 57.6404 79.3457 57.6413 79.3452C57.6761 79.3255 57.707 79.3028 57.7345 79.2779C57.7547 79.2595 57.7704 79.2422 57.7813 79.2294C57.7835 79.2278 57.7858 79.226 57.7885 79.224C57.7979 79.2171 57.8111 79.2074 57.8334 79.1904C57.8671 79.1646 57.9272 79.1175 57.9804 79.0531C57.9944 79.0362 58.0056 79.0212 58.0135 79.0103L58.022 78.9987C58.0264 78.9949 58.029 78.9929 58.0307 78.9916M57.1454 78.7055L57.1455 78.7054C57.1452 78.7058 57.1452 78.7058 57.1454 78.7055ZM57.7215 78.2218C57.7206 78.2228 57.7207 78.2227 57.7216 78.2217L57.7215 78.2218ZM57.7505 78.2069C57.7493 78.2091 57.7495 78.2087 57.7508 78.2064C57.7507 78.2066 57.7506 78.2068 57.7505 78.2069ZM57.943 77.9804C57.943 77.9804 57.9431 77.9801 57.9434 77.9795C57.9431 77.9801 57.943 77.9805 57.943 77.9804ZM58.692 78.3278C58.686 78.3403 58.6786 78.3549 58.6698 78.3702C58.6167 78.4623 58.5342 78.5559 58.4946 78.5995C58.4777 78.6181 58.4616 78.6332 58.4491 78.6443C58.4287 78.6742 58.3992 78.7105 58.3578 78.7453C58.356 78.7474 58.3542 78.7495 58.3528 78.7512C58.3354 78.7715 58.2941 78.8198 58.2269 78.8635C58.221 78.8694 58.2143 78.8759 58.2067 78.8828C58.1775 78.9092 58.1303 78.9458 58.064 78.9724C58.062 78.9735 58.059 78.9752 58.0543 78.9779C58.0496 78.9806 58.0403 78.986 58.0318 78.9908M58.2603 78.8272C58.2603 78.8272 58.2599 78.8277 58.2592 78.8285C58.26 78.8275 58.2604 78.8271 58.2603 78.8272ZM58.4823 78.5886C58.4825 78.5883 58.4827 78.588 58.4829 78.5876L58.4826 78.5881C58.4825 78.5883 58.4824 78.5884 58.4823 78.5886ZM56.8064 78.9795C56.8062 78.9799 56.8063 78.9797 56.8065 78.9791L56.8064 78.9795ZM53.2719 81.1058C53.2719 81.1058 53.2719 81.1058 53.2719 81.1058L53.2719 81.1058Z" fill="black"/>
<path fill-rule="evenodd" clip-rule="evenodd" d="M58.3038 77.8273C58.4897 77.6958 58.7479 77.7384 58.8807 77.9226C58.9398 78.0047 58.9655 78.0873 58.9766 78.1237C58.9793 78.1326 58.9818 78.1414 58.9836 78.1476C58.9838 78.1483 58.984 78.149 58.9842 78.1496C58.9856 78.1545 58.9867 78.158 58.9875 78.1608C58.9878 78.1614 58.9882 78.162 58.9886 78.1627C58.9931 78.1708 59.0027 78.1877 59.0107 78.2029C59.021 78.2227 59.0362 78.2534 59.0493 78.2904C59.0604 78.3215 59.0724 78.3637 59.0775 78.4141C59.0783 78.4162 59.0793 78.4187 59.0806 78.4217C59.0846 78.4314 59.0878 78.4389 59.0924 78.4494C59.0952 78.4559 59.0986 78.4636 59.103 78.4737C59.1119 78.4945 59.1251 78.5257 59.1366 78.5599C59.2088 78.7746 59.0917 79.0067 58.8751 79.0782C58.6584 79.1498 58.4242 79.0338 58.352 78.8191L58.352 78.8191C58.352 78.8191 58.3514 78.8173 58.3497 78.8132C58.348 78.8087 58.3456 78.803 58.3422 78.7951C58.3409 78.7922 58.3392 78.7882 58.3371 78.7835C58.331 78.7693 58.3219 78.7485 58.3147 78.7309C58.3007 78.697 58.2748 78.6325 58.2613 78.5531C58.2579 78.5468 58.2536 78.5391 58.2492 78.5306C58.2438 78.5204 58.2372 78.5073 58.2305 78.4924C58.2149 78.4575 58.2045 78.4259 58.198 78.4048C58.1946 78.3941 58.1917 78.384 58.1896 78.3769L58.1892 78.3755C58.1882 78.372 58.1873 78.3691 58.1866 78.3666C58.0803 78.1859 58.1286 77.9513 58.3038 77.8273Z" fill="black"/>
<path fill-rule="evenodd" clip-rule="evenodd" d="M59.1554 78.6454C59.1312 78.4236 58.9319 78.2612 58.7068 78.2815C58.4794 78.302 58.3118 78.5013 58.3325 78.7266C58.3413 78.8226 58.3682 78.9017 58.3895 78.956C58.3994 78.9811 58.4097 79.005 58.4171 79.0221C58.4176 79.0232 58.418 79.0242 58.4185 79.0252C58.4269 79.0446 58.432 79.0565 58.4361 79.0673C58.4361 79.0673 58.4365 79.0684 58.4373 79.0705C58.4381 79.0731 58.4393 79.0765 58.4408 79.0815L58.4464 79.0995C58.4485 79.1064 58.4512 79.115 58.454 79.124C58.4642 79.1557 58.4849 79.2191 58.5227 79.2835C58.528 79.2925 58.5351 79.3094 58.5577 79.3766C58.5702 79.4137 58.5847 79.4457 58.5941 79.4657C58.5987 79.4754 58.6033 79.485 58.6068 79.4921L58.6075 79.4937C58.6106 79.5001 58.6129 79.5049 58.6149 79.5091C58.6231 79.5598 58.6375 79.6059 58.6477 79.6347C58.6558 79.6576 58.6672 79.6865 58.6824 79.7166C58.6871 79.7258 58.6976 79.7465 58.7146 79.7718C58.7174 79.781 58.7211 79.7929 58.7258 79.8061C58.731 79.8207 58.7382 79.8395 58.7481 79.8604C58.7573 79.8796 58.7669 79.8984 58.7739 79.9121L58.7744 79.9131C58.7823 79.9286 58.7876 79.9391 58.7925 79.9492C58.7961 79.9568 58.7983 79.9617 58.7996 79.9647C58.8169 80.034 58.8423 80.0897 58.8576 80.1223C58.8613 80.1301 58.8649 80.1378 58.8678 80.1438L58.8687 80.1456C58.8719 80.1524 58.8743 80.1573 58.8764 80.1618C58.8804 80.1705 58.8815 80.1734 58.8815 80.1734C58.901 80.2255 58.9159 80.2666 58.9282 80.3073C58.9487 80.375 58.9867 80.4613 59.004 80.5008C59.0057 80.5047 59.0072 80.5081 59.0085 80.5111L59.0108 80.5193C59.0124 80.5252 59.0149 80.5341 59.018 80.544C59.0262 80.5712 59.0437 80.6258 59.0814 80.686C59.0853 80.7032 59.092 80.7317 59.1005 80.7594C59.1102 80.7913 59.1276 80.8409 59.1599 80.894C59.1601 80.8949 59.1604 80.8958 59.1607 80.8967C59.1611 80.8981 59.1616 80.8995 59.1621 80.9012C59.1642 80.9079 59.1671 80.9173 59.1705 80.9274C59.1773 80.9478 59.1874 80.9763 59.2021 81.0081C59.2344 81.078 59.249 81.113 59.2548 81.136C59.2708 81.1994 59.2925 81.2493 59.3049 81.2774C59.3075 81.2833 59.3095 81.2877 59.3111 81.2913C59.314 81.2979 59.3157 81.3017 59.3178 81.3068C59.3201 81.3122 59.3205 81.3137 59.3204 81.3132C59.3254 81.3287 59.3305 81.3432 59.3345 81.3546C59.3359 81.3587 59.3371 81.3622 59.3383 81.3654C59.3408 81.3724 59.3427 81.3779 59.3448 81.3841C59.3507 81.4012 59.3518 81.4058 59.3518 81.4058C59.3687 81.4812 59.3991 81.5437 59.4091 81.5645L59.4094 81.5649C59.4132 81.5828 59.4174 81.598 59.421 81.6101C59.4218 81.6129 59.4226 81.6155 59.4233 81.6179C59.4235 81.6217 59.4237 81.6255 59.4239 81.6292C59.4281 81.7064 59.4315 81.7705 59.4315 81.8365V81.9889C59.4315 82.0042 59.4318 82.0187 59.4322 82.0308C59.4324 82.0377 59.4327 82.0463 59.4329 82.0537C59.433 82.0575 59.4332 82.061 59.4332 82.0637C59.4336 82.0746 59.4338 82.083 59.4339 82.0898C59.408 82.1474 59.393 82.2021 59.3842 82.239C59.3714 82.2921 59.3634 82.3425 59.3584 82.3771C59.3421 82.4901 59.3423 82.6043 59.3425 82.6839C59.3425 82.6912 59.3425 82.6983 59.3425 82.705V82.8121C59.3425 82.8523 59.3352 82.8747 59.3051 82.9668C59.2979 82.9889 59.2893 83.0151 59.2792 83.0465C59.1896 83.3256 59.1086 83.5678 58.9898 83.7771C58.9569 83.8351 58.9347 83.8733 58.9088 83.911C58.8807 83.952 58.8558 83.9937 58.8373 84.0245L58.8345 84.0294C58.8155 84.0612 58.8022 84.0834 58.7886 84.1041C58.7734 84.1272 58.764 84.1383 58.7603 84.1424C58.7572 84.1439 58.7524 84.1462 58.7455 84.149C58.7347 84.1534 58.7217 84.1579 58.7062 84.1628C58.7039 84.1632 58.7009 84.1637 58.6972 84.1644C58.6954 84.1647 58.6932 84.1651 58.6909 84.1655C58.675 84.1682 58.649 84.1727 58.6237 84.178C58.5969 84.1836 58.5503 84.1941 58.5019 84.213C58.4775 84.2226 58.44 84.239 58.4002 84.266C58.3629 84.2913 58.2974 84.3433 58.2521 84.433C58.15 84.6354 58.2328 84.8816 58.4371 84.9827C58.5638 85.0455 58.7075 85.0378 58.8227 84.9745C58.8254 84.9741 58.8283 84.9736 58.8315 84.973C58.8342 84.9725 58.8372 84.972 58.8404 84.9715C58.8498 84.9698 58.8628 84.9675 58.8758 84.9649C58.8872 84.9627 58.9086 84.9582 58.9323 84.9512C59.0012 84.9307 59.1079 84.895 59.2084 84.8316C59.3442 84.746 59.4293 84.6307 59.4813 84.5517C59.5055 84.5151 59.5277 84.4777 59.5445 84.4495C59.5462 84.4468 59.5477 84.4442 59.5492 84.4416C59.5686 84.4092 59.5812 84.3885 59.5927 84.3717C59.6406 84.302 59.6783 84.2358 59.7106 84.1788C59.8773 83.8853 59.981 83.5639 60.0673 83.2949C60.0712 83.283 60.0758 83.2693 60.0811 83.2539C60.1142 83.1571 60.1696 82.9953 60.1696 82.8121V82.7018C60.1696 82.6041 60.1696 82.5456 60.1771 82.493C60.1808 82.4679 60.1846 82.4461 60.1887 82.429C60.1893 82.4263 60.1899 82.4241 60.1904 82.4222C60.2512 82.3051 60.2586 82.1885 60.2604 82.1295C60.2615 82.0938 60.2606 82.0607 60.2599 82.0377C60.2596 82.031 60.2595 82.0253 60.2593 82.0203C60.2588 82.005 60.2585 81.9969 60.2585 81.9889V81.8365C60.2585 81.7469 60.2537 81.6579 60.2496 81.5811C60.2488 81.5674 60.2481 81.5542 60.2475 81.5413C60.2437 81.4679 60.2252 81.4114 60.2178 81.3889C60.2175 81.3882 60.2173 81.3875 60.2171 81.3869C60.2017 81.3081 60.1727 81.2475 60.161 81.223C60.1605 81.2219 60.16 81.2208 60.1595 81.2198C60.1575 81.2157 60.156 81.2123 60.1547 81.2096C60.1457 81.1735 60.1353 81.1421 60.1277 81.1198C60.1221 81.1038 60.1187 81.0942 60.1161 81.0867C60.113 81.078 60.1109 81.0722 60.1077 81.0624C60.0928 81.0163 60.074 80.9744 60.0655 80.9554C60.0644 80.953 60.0635 80.951 60.0628 80.9493C60.059 80.9408 60.0572 80.9363 60.0564 80.9345C60.03 80.8312 59.9842 80.7321 59.9582 80.6759C59.9575 80.6745 59.9569 80.6731 59.9563 80.6718L59.9561 80.6712C59.9552 80.6685 59.9541 80.6651 59.9522 80.6591C59.952 80.6583 59.9517 80.6573 59.9514 80.6563C59.9498 80.6512 59.9475 80.6438 59.9452 80.6367C59.9367 80.6103 59.9199 80.5593 59.8874 80.5021C59.887 80.4999 59.8864 80.4975 59.8858 80.4948L59.8855 80.4933C59.8812 80.4746 59.8723 80.4348 59.8575 80.393C59.8467 80.3627 59.8295 80.3208 59.8009 80.276C59.7988 80.269 59.7962 80.2606 59.7932 80.2515C59.7892 80.2393 59.784 80.2248 59.7774 80.2089C59.7604 80.1676 59.7492 80.1425 59.7411 80.1244C59.7311 80.1017 59.7259 80.0901 59.7204 80.0718C59.7 80.0044 59.6772 79.9426 59.6571 79.8888C59.6465 79.8606 59.6356 79.8361 59.6272 79.8181C59.6229 79.8091 59.6188 79.8005 59.6156 79.7938L59.615 79.7925C59.6118 79.7859 59.6095 79.7811 59.6073 79.7763C59.604 79.7693 59.6021 79.765 59.6012 79.7627C59.5837 79.6925 59.5564 79.6326 59.5389 79.5963C59.5298 79.5774 59.5205 79.5591 59.5136 79.5457L59.5125 79.5435C59.5092 79.5369 59.5064 79.5315 59.5041 79.5269C59.5038 79.526 59.5035 79.525 59.5032 79.5238C59.5014 79.5175 59.4986 79.5075 59.4953 79.4967C59.489 79.4765 59.4773 79.4404 59.4575 79.4007C59.4498 79.3851 59.4398 79.3669 59.427 79.3472C59.4116 79.2634 59.3807 79.1975 59.3672 79.1685L59.367 79.168C59.3618 79.1571 59.3568 79.1467 59.3531 79.139C59.3489 79.1304 59.3462 79.1249 59.3438 79.1197C59.3424 79.1166 59.3414 79.1145 59.3408 79.1132C59.3402 79.1112 59.3395 79.1091 59.3387 79.1069C59.3224 79.058 59.2929 78.9697 59.2451 78.8846C59.2444 78.8826 59.2436 78.8801 59.2426 78.877C59.2412 78.8724 59.2396 78.8673 59.2375 78.8605C59.2372 78.8597 59.237 78.8589 59.2367 78.8581C59.2349 78.8522 59.2327 78.8449 59.2304 78.8376C59.2252 78.8212 59.2177 78.7981 59.2081 78.7732C59.1976 78.7463 59.1868 78.7212 59.1791 78.7034L59.1786 78.7023C59.1699 78.6821 59.1647 78.6702 59.1604 78.6591C59.1577 78.6523 59.1562 78.6478 59.1554 78.6454ZM59.4312 81.6422L59.4314 81.6428C59.4319 81.6441 59.4317 81.6438 59.4312 81.6422Z" fill="black"/>
<path fill-rule="evenodd" clip-rule="evenodd" d="M59.745 82.7305C59.9734 82.7305 60.1585 82.9139 60.1585 83.1402V83.3348C60.1585 83.4605 60.1243 83.5929 60.1097 83.6491C60.1072 83.6588 60.1053 83.6662 60.1042 83.671C60.069 83.8278 60.0133 83.9736 59.9647 84.0941C59.9518 84.1258 59.9382 84.1523 59.9277 84.1715C59.9201 84.1856 59.911 84.2011 59.9062 84.2094C59.9052 84.2111 59.9044 84.2125 59.9038 84.2135C59.9029 84.2152 59.902 84.2167 59.9013 84.2179C59.8936 84.2404 59.8833 84.2655 59.8706 84.2909L59.87 84.292C59.8604 84.3111 59.8216 84.3886 59.7421 84.4516C59.6976 84.4868 59.6412 84.5268 59.568 84.5584C59.5256 84.5768 59.4846 84.5893 59.4462 84.5984C59.4429 84.6035 59.4393 84.6093 59.4352 84.6159C59.4327 84.6198 59.4298 84.6246 59.4264 84.6299C59.4185 84.6428 59.4085 84.6588 59.3999 84.6725C59.3745 84.7125 59.3331 84.7752 59.2762 84.834C59.118 84.9973 58.8562 85.0026 58.6915 84.8458C58.5271 84.6895 58.5214 84.431 58.6784 84.2677C58.6784 84.2677 58.6847 84.26 58.7001 84.2357C58.7027 84.2316 58.7067 84.2251 58.7117 84.2171C58.7279 84.191 58.7543 84.1484 58.7763 84.1165C58.8348 84.0317 58.9585 83.8723 59.1807 83.8158C59.1823 83.813 59.1838 83.8104 59.1851 83.808L59.1858 83.8069C59.1892 83.801 59.1916 83.7969 59.1935 83.7937C59.1962 83.7889 59.1977 83.7863 59.1993 83.7835C59.2439 83.6728 59.2774 83.5801 59.2969 83.4932C59.3024 83.4686 59.3083 83.4449 59.3129 83.4264C59.3132 83.425 59.3136 83.4236 59.3139 83.4223C59.3191 83.4015 59.3226 83.3871 59.3255 83.3737C59.3311 83.3482 59.3315 83.3385 59.3315 83.3348V83.1402C59.3315 82.9139 59.5166 82.7305 59.745 82.7305Z" fill="black"/>
<path fill-rule="evenodd" clip-rule="evenodd" d="M58.115 78.3237C58.3372 78.2714 58.5602 78.4074 58.613 78.6276C58.6188 78.6521 58.6243 78.6754 58.6296 78.6976C58.6629 78.8381 58.6864 78.9374 58.7276 79.0321C58.7851 79.1643 58.8743 79.294 58.9888 79.4591C59.0264 79.5133 59.066 79.5668 59.1103 79.6265C59.1158 79.6339 59.1213 79.6414 59.127 79.649C59.1763 79.7156 59.2308 79.7896 59.2827 79.8674C59.3868 80.0234 59.4928 80.2119 59.5501 80.4388C59.5791 80.554 59.579 80.6659 59.5767 80.7408C59.5752 80.792 59.5734 80.8218 59.5719 80.8457C59.5704 80.8711 59.5692 80.8898 59.5692 80.9207C59.5692 81.1256 59.6089 81.3149 59.6856 81.532C59.7205 81.6308 59.7471 81.7323 59.7471 81.8687C59.7471 81.921 59.7473 81.9743 59.7475 82.0284C59.7484 82.2938 59.7494 82.5779 59.7287 82.8593C59.7155 83.0394 59.678 83.212 59.6381 83.3667C59.6686 83.4076 59.6992 83.4549 59.7256 83.5074C59.7746 83.6049 59.8248 83.7527 59.7958 83.9251C59.7804 84.017 59.7474 84.0942 59.7304 84.1336C59.7118 84.1763 59.683 84.229 59.6362 84.2794C59.5867 84.3327 59.5309 84.3688 59.477 84.3925C59.4295 84.4134 59.387 84.4229 59.37 84.4267C59.3498 84.4311 59.348 84.4314 59.347 84.4315C59.3462 84.4316 59.3458 84.4316 59.3383 84.4334C59.2788 84.4473 59.22 84.4567 59.1639 84.4634C59.1113 84.53 59.0494 84.5939 58.9735 84.6538C58.8695 84.7359 58.8064 84.805 58.7843 84.8495C58.7545 84.9095 58.718 84.9571 58.7012 84.9789C58.6945 84.9877 58.691 84.9921 58.6883 84.9955C58.6855 84.9991 58.6835 85.0017 58.6794 85.0071C58.6769 85.0104 58.6756 85.0122 58.675 85.013C58.6744 85.0138 58.6746 85.0136 58.6752 85.0126C58.6054 85.1203 58.5089 85.1701 58.4591 85.1915C58.4047 85.2148 58.3541 85.2259 58.3231 85.2317C58.2902 85.2378 58.2598 85.2413 58.2432 85.2432C58.233 85.2443 58.2277 85.245 58.2256 85.2452C58.0196 85.2829 57.8037 85.302 57.6134 85.3189C57.5646 85.3232 57.5176 85.3274 57.4728 85.3317C57.3138 85.3469 57.1545 85.3489 57.0156 85.3506C56.9938 85.3509 56.9726 85.3512 56.9519 85.3515C56.7911 85.3539 56.6545 85.3587 56.5238 85.3793C56.432 85.3937 56.3636 85.4117 56.279 85.4338C56.2185 85.4497 56.1497 85.4677 56.0582 85.4882C55.8523 85.5342 55.645 85.5042 55.5196 85.4821C55.5175 85.4818 55.5172 85.4817 55.5161 85.4816C55.5149 85.4814 55.5129 85.481 55.5068 85.48C55.4997 85.4788 55.4872 85.4766 55.4729 85.4735C55.4516 85.4689 55.3883 85.4549 55.3216 85.4152C55.2435 85.3685 55.1379 85.2708 55.1129 85.1081C55.0915 84.9687 55.1432 84.8611 55.1709 84.8128C55.2222 84.7233 55.2885 84.6595 55.3323 84.6211C55.3631 84.594 55.4058 84.5607 55.4264 84.5446C55.4314 84.5407 55.4351 84.5378 55.437 84.5363C55.4403 84.5337 55.4438 84.5309 55.4474 84.528C55.4815 84.5005 55.5304 84.4611 55.5896 84.422C55.6019 84.3766 55.6171 84.3403 55.6097 84.3604C55.6513 84.2475 55.7127 84.1084 55.802 83.9834C55.9694 83.749 56.2211 83.61 56.3722 83.5266C56.3777 83.5236 56.383 83.5206 56.3882 83.5178C56.4256 83.4971 56.4633 83.4772 56.5013 83.4581C56.5447 83.3916 56.5892 83.3301 56.6315 83.2739C56.5781 83.2962 56.4522 83.3358 56.3059 83.2756C56.2747 83.2628 56.2473 83.2475 56.2233 83.2307C56.1268 83.2346 55.9801 83.2189 55.8483 83.11C55.7704 83.0457 55.7282 82.9704 55.7052 82.9169C55.682 82.8629 55.6705 82.8127 55.6642 82.7778C55.6577 82.742 55.6544 82.7094 55.6525 82.6887C55.6519 82.6823 55.6511 82.674 55.6506 82.6681C55.6504 82.6657 55.6503 82.6638 55.6502 82.6625C55.6496 82.6563 55.6494 82.6542 55.6494 82.6542L55.6494 82.6543C55.6334 82.5241 55.6292 82.3924 55.6406 82.2575C55.5144 82.3078 55.3885 82.3626 55.2631 82.4205C55.0795 82.5054 54.8666 82.5957 54.617 82.6384C54.3328 82.6871 54.0479 82.6922 53.7792 82.6761C53.5829 82.6643 53.3251 82.6308 53.0861 82.4921C53.047 82.4694 52.9932 82.4313 52.9466 82.3814L52.9462 82.3811C52.93 82.3637 52.8674 82.2968 52.8383 82.1923C52.8211 82.1309 52.8085 82.0301 52.8544 81.9193C52.902 81.8045 52.9882 81.7371 53.0583 81.7023C53.1305 81.6666 53.1998 81.6546 53.2315 81.6498C53.2697 81.6441 53.3044 81.6419 53.3214 81.6409C53.3732 81.6377 53.4343 81.6078 53.6088 81.5167C53.6322 81.5044 53.6574 81.4878 53.706 81.4548C53.7076 81.4537 53.7093 81.4526 53.711 81.4514C53.753 81.4229 53.8155 81.3804 53.8862 81.3437C54.0094 81.2797 54.164 81.241 54.2432 81.2212C54.2588 81.2173 54.2714 81.2141 54.2804 81.2116C54.3469 81.1931 54.4211 81.1619 54.5188 81.1206C54.5287 81.1165 54.5388 81.1122 54.5492 81.1078C54.7019 81.0436 54.8481 80.9743 54.9798 80.8975C55.0033 80.8837 55.03 80.8676 55.0592 80.8499C55.1656 80.7854 55.3054 80.7007 55.4479 80.6402C55.4864 80.6238 55.522 80.609 55.5557 80.595C55.6388 80.5604 55.7105 80.5306 55.7855 80.4945C56.0269 80.3785 56.2438 80.2264 56.4958 80.0496C56.5204 80.0324 56.5453 80.0149 56.5707 79.9972C56.6906 79.9133 56.812 79.8517 56.9284 79.8009C56.9503 79.7914 56.9616 79.7831 56.9727 79.773C56.988 79.759 57.0083 79.7364 57.0466 79.6858C57.0659 79.6602 57.0872 79.6306 57.1106 79.5981C57.2427 79.4144 57.4414 79.138 57.7355 78.9721C57.7644 78.9558 57.7978 78.9405 57.8344 78.9278C57.8301 78.9098 57.826 78.8924 57.8221 78.8756C57.8173 78.855 57.8127 78.8355 57.8083 78.817C57.7555 78.5969 57.8929 78.376 58.115 78.3237Z" fill="black"/>
<path d="M45.5501 76.2058C47.7152 75.8752 48.6303 75.3447 49.9475 74.0374L52.0064 79.8614C51.063 80.7865 50.4803 81.0854 49.3479 81.1673L45.5501 76.2058Z" fill="black"/>
<path fill-rule="evenodd" clip-rule="evenodd" d="M51.8339 82.5236C51.8037 82.5311 51.7727 82.5417 51.748 82.552C51.7235 82.5623 51.6977 82.5717 51.6811 82.5778L51.6786 82.5787C51.6604 82.5853 51.6483 82.5898 51.6377 82.594C51.5964 82.6313 51.5602 82.6592 51.5297 82.6827C51.5271 82.6847 51.5245 82.6866 51.522 82.6886C51.4171 82.7694 51.3091 82.802 51.2449 82.8189C51.2253 82.824 51.1977 82.8305 51.1809 82.8345C51.1753 82.8358 51.1708 82.8369 51.1683 82.8375C51.1498 82.842 51.1427 82.8443 51.1398 82.8453C51.0689 82.8706 50.9931 82.8898 50.9408 82.9031C50.9315 82.9054 50.9229 82.9076 50.9152 82.9096C50.8535 82.9256 50.8215 82.9359 50.799 82.9463C50.7051 82.9898 50.6129 83.0096 50.5569 83.021C50.5368 83.0251 50.5208 83.0282 50.5077 83.0308C50.4744 83.0374 50.4595 83.0404 50.4426 83.0456C50.3783 83.0653 50.3075 83.0794 50.2654 83.0878C50.2568 83.0895 50.2495 83.091 50.2435 83.0922C50.1958 83.1022 50.1812 83.1077 50.1755 83.1104C50.0723 83.1586 49.9704 83.1806 49.8978 83.1937C49.8451 83.2032 49.8184 83.2071 49.7969 83.2102C49.7752 83.2133 49.7588 83.2157 49.726 83.2224C49.6306 83.2418 49.5077 83.2561 49.4161 83.2667C49.3785 83.2711 49.3462 83.2749 49.3232 83.2781C49.3076 83.2803 49.2879 83.2846 49.2508 83.2941C49.2464 83.2952 49.2417 83.2965 49.2365 83.2978C49.2045 83.3061 49.1575 83.3182 49.1102 83.3274C48.9665 83.3552 48.8062 83.3519 48.7096 83.35C48.6893 83.3495 48.6718 83.3492 48.6578 83.3492C48.5986 83.3492 48.5418 83.3456 48.499 83.3428L48.4947 83.3425C48.4472 83.3395 48.4151 83.3376 48.3849 83.3376C48.1561 83.3376 47.9264 83.342 47.6953 83.3478C47.691 83.3493 47.6864 83.351 47.6815 83.3526C47.6562 83.3611 47.619 83.3719 47.5735 83.3779C47.505 83.3868 47.4462 83.3807 47.4057 83.3738C47.3662 83.3671 47.332 83.3573 47.315 83.3524C47.3076 83.3503 47.3045 83.3494 47.3021 83.3486C47.3012 83.3484 47.3003 83.3481 47.2993 83.3478C47.2012 83.3428 47.109 83.3276 47.0409 83.3164C47.0376 83.3158 47.0344 83.3153 47.0312 83.3148C46.9466 83.3009 46.8944 83.293 46.8468 83.2917C46.76 83.2894 46.6773 83.29 46.5872 83.2906C46.5433 83.2909 46.4978 83.2912 46.4491 83.2912C46.4184 83.2912 46.3956 83.2928 46.3629 83.2951C46.3393 83.2967 46.3105 83.2987 46.2697 83.3007C46.1934 83.3045 46.0828 83.307 45.9654 83.2823C45.9416 83.2773 45.9185 83.2773 45.8375 83.2775C45.8284 83.2776 45.8184 83.2776 45.8076 83.2776C45.7221 83.2778 45.575 83.277 45.4199 83.2198C45.3779 83.2043 45.3432 83.1985 45.3139 83.1985C45.1867 83.1985 45.0629 83.1778 44.9784 83.1637C44.9616 83.1609 44.9464 83.1583 44.933 83.1563C44.9097 83.1527 44.8862 83.1506 44.8462 83.1469C44.8422 83.1466 44.838 83.1462 44.8337 83.1458C44.7915 83.142 44.7316 83.1364 44.6677 83.1242C44.6074 83.1126 44.5468 83.0964 44.5031 83.0846C44.4737 83.0925 44.4479 83.0962 44.4289 83.0979C44.3656 83.1034 44.3156 83.0934 44.2948 83.0887C44.2695 83.083 44.2491 83.0762 44.2369 83.0719C44.2147 83.064 44.195 83.0551 44.1886 83.0522C44.1883 83.0521 44.1879 83.052 44.1877 83.0518C44.1875 83.0517 44.1872 83.0516 44.187 83.0515C44.1707 83.0455 44.1583 83.0407 44.1486 83.0369C44.1016 83.0352 44.0574 83.0353 44.0147 83.038C43.8252 83.05 43.5813 83.0451 43.3374 82.9295C43.2593 82.9218 43.1327 82.8926 43.024 82.7849C43.0107 82.7717 42.9825 82.7424 42.9568 82.6989C42.9354 82.6627 42.8797 82.5564 42.9067 82.4139C42.9387 82.2456 43.0582 82.1555 43.1359 82.1187C43.2041 82.0864 43.2642 82.0807 43.2867 82.0791C43.336 82.0755 43.3761 82.0814 43.3874 82.083C43.3875 82.0831 43.3876 82.0831 43.3878 82.0831C43.4051 82.0856 43.42 82.0887 43.4293 82.0908C43.4362 82.0923 43.4437 82.094 43.4505 82.0956C43.4773 82.0934 43.4969 82.0943 43.5029 82.0946C43.5031 82.0946 43.5034 82.0946 43.5036 82.0946C43.5294 82.0957 43.5502 82.0991 43.5558 82.1L43.5561 82.1001C43.5712 82.1025 43.5857 82.1056 43.5957 82.1078C43.5961 82.1078 43.6031 82.1089 43.6206 82.1097C43.6311 82.1102 43.6428 82.1105 43.6578 82.1109C43.6607 82.1109 43.6638 82.111 43.6672 82.1111C43.6793 82.1113 43.6942 82.1117 43.7079 82.1121C43.7913 82.1148 43.8704 82.1244 43.9304 82.1316L43.9317 82.1318C43.9975 82.1398 44.0424 82.1452 44.0856 82.147C44.088 82.1471 44.0903 82.1472 44.0924 82.1473C44.1049 82.1474 44.1151 82.1475 44.1231 82.1476L44.1235 82.1476C44.1265 82.1477 44.1371 82.1479 44.1484 82.1486L44.1486 82.1487C44.1509 82.1488 44.1636 82.1496 44.1792 82.1518C44.1841 82.1525 44.1925 82.1538 44.203 82.1558C44.2105 82.1573 44.2334 82.162 44.2615 82.172C44.275 82.1768 44.3034 82.1876 44.3362 82.2073C44.3423 82.211 44.3526 82.2173 44.3653 82.2265C44.3712 82.2282 44.3782 82.2302 44.3857 82.2324C44.4106 82.2348 44.4349 82.2373 44.4583 82.2397C44.5496 82.2494 44.6304 82.2699 44.6883 82.2852C44.7027 82.2891 44.7155 82.2925 44.7271 82.2956C44.7688 82.3069 44.7952 82.314 44.8243 82.3195C44.844 82.3233 44.8676 82.326 44.9091 82.3298C44.9131 82.3301 44.9174 82.3305 44.922 82.3309C44.9579 82.3341 45.0092 82.3387 45.0607 82.3466C45.0922 82.3515 45.1192 82.3559 45.1428 82.3598C45.2196 82.3723 45.2615 82.3791 45.3139 82.3791C45.4567 82.3791 45.5893 82.4079 45.7083 82.4518C45.7122 82.4532 45.728 82.4583 45.806 82.4581C45.813 82.4581 45.8212 82.458 45.8303 82.4579C45.8972 82.4571 46.0187 82.4557 46.1375 82.4808C46.1467 82.4827 46.17 82.4852 46.2284 82.4823C46.2381 82.4818 46.2522 82.4809 46.2691 82.4798C46.3185 82.4766 46.3919 82.4718 46.4491 82.4718C46.4855 82.4718 46.5245 82.4715 46.5649 82.4713C46.662 82.4706 46.768 82.4699 46.8689 82.4726C46.9791 82.4755 47.0838 82.4927 47.159 82.5051L47.1666 82.5064C47.2518 82.5204 47.3043 82.5285 47.3527 82.5299C47.4079 82.5316 47.4542 82.5412 47.4836 82.5484C47.4863 82.549 47.4889 82.5497 47.4915 82.5503C47.5268 82.5406 47.573 82.5312 47.6255 82.5299C47.8754 82.5234 48.1295 82.5181 48.3849 82.5181C48.4441 82.5181 48.5009 82.5218 48.5436 82.5245L48.548 82.5248C48.5954 82.5278 48.6276 82.5297 48.6578 82.5297C48.7068 82.5297 48.7463 82.5303 48.7795 82.5308C48.8592 82.532 48.9023 82.5327 48.9515 82.5232C48.9717 82.5193 48.9908 82.5144 49.0235 82.506C49.0298 82.5043 49.0367 82.5026 49.0441 82.5007C49.0842 82.4904 49.1419 82.476 49.2063 82.4669C49.2774 82.4568 49.3314 82.4509 49.3783 82.4457C49.4436 82.4385 49.4951 82.4328 49.5599 82.4196C49.5964 82.4122 49.6707 82.4003 49.7153 82.3931C49.7324 82.3904 49.7452 82.3883 49.7497 82.3875C49.7991 82.3786 49.8172 82.3718 49.8226 82.3693C49.9194 82.3241 50.0121 82.3031 50.0727 82.2905C50.0941 82.286 50.1113 82.2825 50.1255 82.2796C50.1598 82.2727 50.177 82.2692 50.1975 82.2629C50.2391 82.2501 50.2781 82.2412 50.3096 82.2345C50.326 82.231 50.3502 82.2263 50.3686 82.2226C50.3779 82.2208 50.3857 82.2193 50.3904 82.2183C50.4128 82.2137 50.4271 82.2104 50.4378 82.2074C50.4457 82.2052 50.4492 82.2038 50.4496 82.2036C50.5452 82.1594 50.64 82.1339 50.706 82.1168C50.7208 82.113 50.7341 82.1096 50.7463 82.1065C50.7977 82.0933 50.8288 82.0853 50.8597 82.0743C50.9028 82.0589 50.9424 82.0487 50.9706 82.0418C50.9808 82.0393 50.9918 82.0367 51.0006 82.0347C51.0034 82.034 51.006 82.0334 51.0083 82.0328C51.0191 82.0303 51.0267 82.0284 51.0332 82.0267C51.0334 82.0267 51.0337 82.0266 51.0339 82.0265C51.0621 82.0047 51.0744 81.9946 51.0911 81.9786C51.1765 81.8963 51.2791 81.854 51.3214 81.8368C51.3473 81.8263 51.3726 81.8171 51.39 81.8107L51.3925 81.8098C51.4134 81.8022 51.4216 81.7991 51.4263 81.7971C51.5366 81.751 51.713 81.6953 51.8822 81.6953C52.1106 81.6953 52.2957 81.8788 52.2957 82.105C52.2957 82.3313 52.1106 82.5148 51.8822 82.5148C51.8822 82.5148 51.8822 82.5148 51.882 82.5148C51.88 82.5149 51.8639 82.5161 51.8339 82.5236Z" fill="black"/>
<path fill-rule="evenodd" clip-rule="evenodd" d="M52.1117 82.3422C52.1127 82.3421 52.1136 82.342 52.1145 82.3419C52.1253 82.3412 52.134 82.3409 52.1396 82.3409C52.368 82.3409 52.5531 82.1575 52.5531 81.9312C52.5531 81.7049 52.368 81.5215 52.1396 81.5215C52.0581 81.5215 51.8846 81.5317 51.7429 81.5941C51.7425 81.5943 51.7422 81.5944 51.7418 81.5946C51.7223 81.6032 51.6759 81.6236 51.6252 81.6644C51.5978 81.6743 51.5738 81.6844 51.5545 81.693C51.537 81.7008 51.5134 81.7119 51.498 81.7191C51.4925 81.7217 51.4881 81.7237 51.4854 81.725C51.4755 81.7296 51.4686 81.7325 51.4642 81.7344C51.3981 81.7414 51.3263 81.7417 51.2272 81.7417C50.9989 81.7417 50.8137 81.9251 50.8137 82.1514C50.8137 82.3777 50.9989 82.5611 51.2272 82.5611C51.2314 82.5611 51.2357 82.5611 51.24 82.5611C51.3346 82.5612 51.457 82.5612 51.582 82.5457C51.6964 82.5316 51.7904 82.4883 51.8351 82.4676C51.8493 82.461 51.8587 82.4566 51.8663 82.453C51.8757 82.4485 51.8825 82.4453 51.8928 82.4408C51.8964 82.4392 51.8992 82.438 51.9014 82.4371C51.9143 82.4345 51.9389 82.4291 51.9641 82.4209C52.0065 82.4072 52.0593 82.3837 52.1117 82.3422ZM52.0621 82.3492C52.0621 82.3492 52.0624 82.3492 52.0628 82.349C52.0624 82.3492 52.0621 82.3492 52.0621 82.3492ZM51.7409 81.6331C51.741 81.6331 51.7401 81.6333 51.738 81.6337C51.7398 81.6333 51.7408 81.6331 51.7409 81.6331Z" fill="black"/>
<path fill-rule="evenodd" clip-rule="evenodd" d="M54.609 80.1475C54.6693 80.1291 54.7875 80.1004 54.9208 80.1298C54.9978 80.1467 55.0798 80.1881 55.1443 80.2622C55.2054 80.3324 55.2293 80.4072 55.2384 80.4591C55.2545 80.5499 55.2346 80.6211 55.2298 80.6385L55.2297 80.6387C55.2172 80.684 55.199 80.717 55.1955 80.7236C55.1953 80.7238 55.1952 80.724 55.1951 80.7242C55.1847 80.7433 55.1748 80.7577 55.1727 80.7608L55.1725 80.7611C55.1663 80.7701 55.1608 80.7773 55.1593 80.7793L55.1592 80.7794C55.1548 80.7851 55.1505 80.7906 55.1477 80.794C55.1415 80.8018 55.134 80.811 55.1273 80.8191L55.1273 80.8191C55.119 80.8292 55.0969 80.8561 55.0865 80.8676C54.9876 80.9765 54.8717 81.0492 54.7799 81.0993C54.7216 81.131 54.6477 81.1662 54.5935 81.192C54.5719 81.2023 54.5534 81.211 54.5404 81.2175L54.5402 81.2176C54.4327 81.2708 54.2944 81.3393 54.1457 81.3885C54.146 81.3884 54.1438 81.3891 54.1361 81.3922L54.1221 81.398C54.1167 81.4002 54.1094 81.4033 54.1019 81.4063C54.0891 81.4116 54.0714 81.4186 54.0501 81.426C54.0224 81.4467 53.9964 81.4626 53.9717 81.4773C53.8817 81.5308 53.7922 81.5681 53.7262 81.595C53.7171 81.5988 53.7084 81.6023 53.7001 81.6057C53.6418 81.6294 53.604 81.6448 53.5672 81.6638C53.2826 81.8107 52.9592 81.9367 52.6203 81.9978C52.5003 82.0194 52.4274 82.0383 52.3713 82.0661C52.167 82.1673 51.9186 82.0852 51.8165 81.8829C51.7144 81.6805 51.7972 81.4343 52.0014 81.3331C52.1708 81.2493 52.3446 81.2146 52.4724 81.1916C52.7088 81.149 52.9526 81.0571 53.1852 80.937C53.258 80.8995 53.3335 80.8689 53.3886 80.8465C53.3965 80.8433 53.404 80.8403 53.411 80.8374C53.4745 80.8115 53.5137 80.7939 53.5462 80.7746C53.5462 80.7746 53.5463 80.7745 53.5463 80.7745C53.6169 80.7046 53.694 80.6772 53.714 80.6701L53.7146 80.6699C53.7414 80.6603 53.7652 80.6545 53.7808 80.6511C53.7824 80.6505 53.7845 80.6496 53.7871 80.6486L53.8017 80.6425C53.8073 80.6402 53.8148 80.6371 53.8226 80.6339C53.8382 80.6276 53.8596 80.6192 53.8842 80.6111C53.8901 80.6091 53.8961 80.6071 53.902 80.605C53.9378 80.5618 53.983 80.5253 54.0366 80.4987C54.0653 80.4846 54.0971 80.4703 54.1207 80.4598C54.1247 80.458 54.1285 80.4563 54.132 80.4547C54.1601 80.4421 54.1804 80.4326 54.1977 80.4236C54.2047 80.42 54.2101 80.4169 54.2144 80.4144C54.2704 80.3414 54.3476 80.2717 54.43 80.2248C54.4765 80.1983 54.5388 80.1688 54.609 80.1475Z" fill="black"/>
<path fill-rule="evenodd" clip-rule="evenodd" d="M58.4885 78.4309C58.6725 78.3603 58.7842 78.1669 58.7442 77.9686C58.6994 77.7467 58.4815 77.6028 58.2576 77.6472C58.1234 77.6738 58.0366 77.74 57.9983 77.7702C57.9968 77.7713 57.9955 77.7724 57.9942 77.7734C57.9237 77.8028 57.8629 77.8336 57.8069 77.8628C57.6701 77.9342 57.5889 78.0348 57.5393 78.1086C57.5184 78.1395 57.4997 78.1712 57.4875 78.1919C57.4862 78.194 57.4851 78.196 57.484 78.1978C57.4697 78.2219 57.4619 78.2346 57.4547 78.245C57.451 78.2503 57.4365 78.2678 57.3711 78.3106C57.3557 78.3207 57.3395 78.3309 57.3203 78.3431L57.318 78.3445C57.3002 78.3558 57.2795 78.3689 57.2587 78.3824C57.2287 78.402 57.1941 78.4254 57.1582 78.4528C57.1511 78.4559 57.1435 78.4593 57.1357 78.463C57.1026 78.479 57.0594 78.5042 57.0163 78.5439C57.0158 78.5443 57.0149 78.5451 57.0136 78.5463C56.9995 78.5587 56.9404 78.6106 56.8895 78.6811C56.8459 78.7119 56.8167 78.7418 56.8033 78.7554L56.8031 78.7557C56.802 78.7568 56.8008 78.758 56.7996 78.7592C56.775 78.7743 56.7372 78.7907 56.6581 78.8207C56.4693 78.8922 56.3322 79.0078 56.2435 79.0826C56.2325 79.0918 56.2224 79.1004 56.2129 79.1082C56.1471 79.1625 56.0217 79.2288 55.9304 79.2567C55.8509 79.2809 55.7924 79.3179 55.7503 79.3509C55.7341 79.3636 55.7199 79.3761 55.714 79.3813C55.7136 79.3817 55.7132 79.382 55.7129 79.3822C55.7107 79.3842 55.7092 79.3855 55.7081 79.3865C55.7057 79.388 55.7 79.3915 55.6892 79.3981C55.688 79.3988 55.6867 79.3996 55.6852 79.4005C55.6658 79.4121 55.6237 79.4373 55.5825 79.47C55.5771 79.4743 55.5682 79.4804 55.5441 79.4926C55.533 79.4982 55.5221 79.5034 55.5068 79.5108C55.5032 79.5125 55.4993 79.5144 55.4952 79.5164C55.4791 79.5242 55.4594 79.5337 55.4381 79.5446C55.4355 79.5455 55.4312 79.547 55.4233 79.5497C55.4107 79.5541 55.387 79.5625 55.3609 79.5744C55.34 79.5838 55.3109 79.5983 55.2792 79.6198C55.2786 79.62 55.2781 79.6202 55.2776 79.6205C55.2764 79.6209 55.2749 79.6216 55.2731 79.6223C55.2637 79.6262 55.2462 79.6336 55.2305 79.6407C55.21 79.65 55.1805 79.6642 55.1486 79.6839C55.1007 79.7136 55.0591 79.7464 55.0357 79.7648C55.0343 79.7659 55.0329 79.767 55.0315 79.7681C55.0031 79.7905 54.9956 79.7958 54.9911 79.7985C54.9379 79.8312 54.8793 79.8566 54.788 79.896C54.7786 79.9001 54.7688 79.9043 54.7587 79.9087C54.7565 79.9093 54.7491 79.9114 54.7328 79.9154C54.7308 79.9159 54.7285 79.9165 54.726 79.9171C54.7008 79.9232 54.6477 79.9361 54.5949 79.9563C54.4583 80.0086 54.3716 80.1066 54.3381 80.1451C54.3215 80.1642 54.3047 80.185 54.2943 80.1979C54.2922 80.2004 54.2904 80.2026 54.2889 80.2045C54.2785 80.2172 54.2751 80.2211 54.2751 80.2211C54.2751 80.2211 54.2753 80.2209 54.2757 80.2205C54.1166 80.3829 54.1205 80.6423 54.2844 80.7999C54.4483 80.9575 54.7101 80.9536 54.8691 80.7912C54.8836 80.7765 54.8961 80.7624 54.9062 80.7507C54.9163 80.7389 54.9255 80.7277 54.9328 80.7187C54.9363 80.7145 54.9388 80.7113 54.9411 80.7085C54.9723 80.7008 55.0281 80.6863 55.0864 80.6611C55.0963 80.6568 55.1068 80.6523 55.1179 80.6475C55.2018 80.6116 55.3191 80.5613 55.4273 80.4947C55.4762 80.4646 55.5184 80.4314 55.5421 80.4127C55.5434 80.4118 55.5446 80.4108 55.5457 80.4099C55.5646 80.395 55.5744 80.3876 55.5802 80.3834C55.5821 80.3826 55.5845 80.3816 55.5877 80.3802C55.5911 80.3788 55.5955 80.377 55.6014 80.3745C55.6151 80.3687 55.6388 80.3586 55.6642 80.3457C55.6791 80.3382 55.6969 80.3285 55.7163 80.3163C55.7215 80.3146 55.7278 80.3123 55.7346 80.3098C55.7515 80.3036 55.7802 80.2925 55.8119 80.2757C55.8142 80.2745 55.8195 80.272 55.827 80.2685C55.8724 80.2471 56.0017 80.1863 56.0966 80.1119C56.0979 80.1111 56.1036 80.1074 56.1185 80.0984C56.1196 80.0978 56.1207 80.0972 56.1219 80.0965C56.1421 80.0843 56.1852 80.0584 56.2279 80.024C56.2293 80.0228 56.2307 80.0217 56.2321 80.0206C56.4061 79.959 56.6016 79.8539 56.7424 79.7377C56.7499 79.7314 56.7572 79.7254 56.7641 79.7197C56.8732 79.6295 56.9024 79.6054 56.9535 79.5861C56.9563 79.585 56.9592 79.5839 56.9622 79.5828C57.0447 79.5516 57.1794 79.5007 57.3032 79.4103C57.3333 79.3883 57.3563 79.3669 57.3712 79.3523C57.3738 79.3497 57.3763 79.3472 57.3786 79.3449C57.4547 79.2977 57.5098 79.2385 57.5502 79.1783C57.5783 79.1642 57.6131 79.1435 57.6487 79.1134C57.6748 79.0912 57.698 79.0765 57.74 79.0501C57.7625 79.0359 57.7904 79.0183 57.827 78.9943C57.911 78.9393 58.0382 78.8505 58.1362 78.7092C58.162 78.6721 58.1832 78.6363 58.1972 78.6127C58.2087 78.5933 58.2155 78.5817 58.221 78.573C58.2629 78.5516 58.296 78.536 58.3311 78.5221C58.3854 78.5006 58.4279 78.4746 58.4592 78.4526C58.4706 78.4446 58.4806 78.437 58.4885 78.4309ZM55.5733 80.3865C55.5733 80.3865 55.5734 80.3864 55.5737 80.3863L55.5733 80.3865ZM58.5141 78.4107C58.5146 78.4103 58.5149 78.4101 58.5149 78.4101C58.5149 78.4102 58.5146 78.4104 58.5141 78.4107Z" fill="black"/>
<path fill-rule="evenodd" clip-rule="evenodd" d="M58.8453 77.926C58.8454 77.9257 58.8454 77.9254 58.8455 77.9249C58.9258 77.7459 58.8668 77.5303 58.6967 77.418C58.5067 77.2925 58.25 77.3433 58.1233 77.5316C58.0649 77.6184 58.0444 77.7146 58.0378 77.7461C58.0362 77.7535 58.0347 77.7611 58.0333 77.7687C58.0295 77.7733 58.0256 77.7782 58.0215 77.7835C58.0109 77.7972 57.9966 77.8168 57.9823 77.8409C57.8665 78.0359 57.9322 78.287 58.129 78.4018C58.3179 78.5119 58.5589 78.4564 58.6804 78.2794C58.6814 78.2783 58.6826 78.2769 58.684 78.2753C58.6854 78.2737 58.6871 78.2719 58.6891 78.2696C58.6947 78.2633 58.703 78.2539 58.7118 78.2434C58.728 78.2241 58.7564 78.1889 58.782 78.1433C58.807 78.0985 58.8409 78.0233 58.8453 77.926ZM58.6743 78.2865C58.6743 78.2865 58.6748 78.2858 58.676 78.2845C58.6749 78.2858 58.6744 78.2864 58.6743 78.2865Z" fill="black"/>
<path d="M22.3126 42.8163C22.864 37.3533 35.4364 23.4717 50.9833 23.2861C66.5302 23.1005 72.6241 31.8903 79.6539 43.4992C79.8105 43.6979 80.1254 43.6809 80.481 43.6358C81.5568 43.4992 81.6021 42.8293 81.5568 42.7012C75.9322 26.79 64.3537 20.0267 53.1886 19.1418C42.0236 18.2568 27.8283 23.7924 20.6964 42.0791C20.6205 42.3775 20.6584 42.6013 20.8101 42.7505C21.4856 43.0895 22.3126 43.0895 22.3126 42.8163Z" fill="black"/>
<defs>
<filter id="filter0_d_54_44" x="0" y="0" width="110" height="110" filterUnits="userSpaceOnUse" color-interpolation-filters="sRGB">
<feFlood flood-opacity="0" result="BackgroundImageFix"/>
<feColorMatrix in="SourceAlpha" type="matrix" values="0 0 0 0 0 0 0 0 0 0 0 0 0 0 0 0 0 0 127 0" result="hardAlpha"/>
<feOffset dx="4" dy="4"/>
<feGaussianBlur stdDeviation="4"/>
<feComposite in2="hardAlpha" operator="out"/>
<feColorMatrix type="matrix" values="0 0 0 0 0 0 0 0 0 0 0 0 0 0 0 0 0 0 0.25 0"/>
<feBlend mode="normal" in2="BackgroundImageFix" result="effect1_dropShadow_54_44"/>
<feBlend mode="normal" in="SourceGraphic" in2="effect1_dropShadow_54_44" result="shape"/>
</filter>
</defs>
</svg>
